<?xml version="1.0" encoding="UTF-8" standalone="no"?>
<!-- Created with Inkscape (http://www.inkscape.org/) -->

<svg
   xmlns:dc="http://purl.org/dc/elements/1.1/"
   xmlns:cc="http://creativecommons.org/ns#"
   xmlns:rdf="http://www.w3.org/1999/02/22-rdf-syntax-ns#"
   xmlns:svg="http://www.w3.org/2000/svg"
   xmlns="http://www.w3.org/2000/svg"
   xmlns:sodipodi="http://sodipodi.sourceforge.net/DTD/sodipodi-0.dtd"
   xmlns:inkscape="http://www.inkscape.org/namespaces/inkscape"
   width="1280"
   height="640"
   viewBox="0 0 338.66666 169.33334"
   version="1.1"
   id="svg825"
   inkscape:version="0.92.3 (2405546, 2018-03-11)"
   sodipodi:docname="github.svg"
   inkscape:export-filename="D:\TFM_aux\Inkscape\logo_name.png"
   inkscape:export-xdpi="96"
   inkscape:export-ydpi="96">
  <defs
     id="defs819" />
  <sodipodi:namedview
     id="base"
     pagecolor="#ffffff"
     bordercolor="#666666"
     borderopacity="1.0"
     inkscape:pageopacity="0.0"
     inkscape:pageshadow="2"
     inkscape:zoom="0.98994949"
     inkscape:cx="483.63017"
     inkscape:cy="422.65482"
     inkscape:document-units="mm"
     inkscape:current-layer="layer1"
     showgrid="false"
     units="px"
     inkscape:window-width="3840"
     inkscape:window-height="2066"
     inkscape:window-x="-11"
     inkscape:window-y="-11"
     inkscape:window-maximized="1" />
  <metadata
     id="metadata822">
    <rdf:RDF>
      <cc:Work
         rdf:about="">
        <dc:format>image/svg+xml</dc:format>
        <dc:type
           rdf:resource="http://purl.org/dc/dcmitype/StillImage" />
        <dc:title></dc:title>
      </cc:Work>
    </rdf:RDF>
  </metadata>
  <g
     inkscape:label="Capa 1"
     inkscape:groupmode="layer"
     id="layer1"
     transform="translate(0,-127.66665)">
    <path
       style="fill:#fdfcfb;stroke-width:0.3175"
       d="m 20.349019,208.99387 v -42.8625 h 54.451248 54.451243 v 42.8625 42.8625 H 74.800267 20.349019 Z"
       id="path842"
       inkscape:connector-curvature="0" />
    <path
       style="fill:#fba104;stroke-width:0.36846721"
       d="m 14.164399,208.83642 c 0,0 -0.685956,-36.82062 10.997604,-48.64839 12.208356,-12.35904 28.26492,-12.0673 50.68878,-12.11428 22.27902,-0.0467 39.185337,-0.53844 51.673907,11.97818 11.78747,11.81393 11.19631,32.21718 11.19631,48.79819 0,16.58107 0.39788,39.91836 -12.36596,52.64874 -11.7299,11.69911 -26.529457,11.19424 -48.413449,11.2371 -22.819272,0.0457 -39.596676,0.53779 -52.17126,-12.13805 C 13.317343,248.04465 14.164399,227.44685 14.164399,208.83642 Z"
       id="path828"
       inkscape:connector-curvature="0"
       sodipodi:nodetypes="sasazasas" />
    <path
       style="fill:#ffffff;fill-opacity:1;stroke:none;stroke-width:0.41771227;stroke-opacity:1"
       d="m 37.974667,241.30518 c 0.534,-0.20485 0.603096,-0.79661 0.402468,-3.44613 -0.416868,-5.50501 1.839672,-15.15182 6.059016,-25.90256 l 2.35302,-5.9954 1.883532,0.25567 c 2.086044,0.28317 5.744148,1.40671 6.016872,1.84802 0.09612,0.15568 -0.931944,5.45143 -2.284764,11.76844 -1.352796,6.31697 -2.463132,11.88823 -2.467404,12.38065 -0.0036,0.49229 0.289596,1.00926 0.653004,1.1487 1.288236,0.4943 9.177048,0.27373 9.931176,-0.27775 0.967356,-0.70733 11.67582,-50.66127 11.093388,-51.74956 -0.525276,-0.98149 -4.552788,-1.75329 -7.33518,-1.40564 -4.18434,0.52278 -7.751556,2.73275 -13.10472,8.11865 -2.646288,2.66248 -5.82774,6.51381 -7.241364,8.43769 l -2.429928,3.59681 -4.24572,0.22471 c -6.63912,0.35137 -11.40624,2.58921 -13.261224,6.22529 -1.047936,2.05414 -0.92784,4.90334 0.26214,6.21823 1.190196,1.31516 3.643416,1.87428 5.622204,1.28147 2.274972,-0.68165 3.097644,-2.01832 2.734128,-4.44249 l -0.283248,-1.88886 1.802124,-0.81786 c 1.793376,-0.81386 3.896892,-1.12017 3.591024,-0.52291 -6.993864,13.65664 -10.239756,24.04447 -9.100968,29.12592 0.248112,1.10719 0.822408,2.53447 1.276188,3.17178 1.241988,1.74414 6.195348,3.36817 8.074236,2.64713 z m 14.461284,-38.87404 c -1.723068,-0.5103 -3.197772,-0.9393 -3.277128,-0.95336 -0.236724,-0.0419 2.41476,-4.62855 4.366788,-7.55385 1.662288,-2.49115 5.59374,-6.81393 5.59374,-6.15057 0,0.70574 -3.04866,14.77248 -3.2844,15.15438 -0.174168,0.2822 -1.348764,0.11076 -3.399,-0.4966 z m 50.794429,31.98234 c 1.4394,-0.25065 2.94771,-0.69753 3.35179,-0.99297 0.68759,-0.50284 0.66259,-0.6229 -0.38988,-1.87378 -1.71738,-2.04092 -1.66097,-3.67812 0.41078,-11.924 1.82128,-7.24898 1.98479,-11.03423 0.57946,-13.41604 -0.51953,-0.88057 -1.31141,-1.85795 -1.75973,-2.17195 -0.7818,-0.5476 -0.73886,-0.65245 1.05059,-2.56553 3.0493,-3.25996 4.21221,-5.91643 4.21321,-9.62436 9.6e-4,-2.40276 -0.2074,-3.52223 -0.89273,-4.80368 -1.83117,-3.4241 -5.21623,-5.67287 -10.096303,-6.70722 -5.946684,-1.26044 -11.420844,-0.4126 -17.944272,2.77922 -8.733132,4.27301 -13.511436,11.16534 -12.148044,17.52264 0.572076,2.6675 2.228148,4.36897 4.782732,4.9138 3.390528,0.72313 3.46482,0.62562 3.228084,-4.23827 -0.18024,-3.70305 -0.08652,-4.5624 0.734604,-6.73023 2.284836,-6.03274 8.629836,-9.83865 16.3992,-9.83671 4.363416,9.6e-4 6.869819,1.90529 7.278319,5.52954 0.4202,3.7279 -1.9933,8.91827 -5.014099,10.78307 -1.37046,0.846 -3.140544,1.45556 -3.416172,1.1764 -0.084,-0.0852 0.488724,-3.06315 1.272588,-6.61805 0.783864,-3.55491 1.425216,-6.98537 1.425216,-7.62325 0,-1.08624 -0.11256,-1.15968 -1.775268,-1.15821 -2.630592,0.001 -9.177276,1.14229 -9.492864,1.65293 -0.150612,0.24372 -1.821048,7.72493 -3.71208,16.62493 -1.891008,8.89996 -3.973104,18.67918 -4.626828,21.73168 -1.496784,6.98871 -1.638732,6.77507 4.494828,6.76622 2.453304,-0.002 4.74252,-0.18181 5.087124,-0.3962 0.421896,-0.26247 1.464312,-4.60329 3.3417,-13.25599 l 2.715132,-12.86612 1.494324,-0.12538 c 1.006956,-0.0845 1.824336,0.14191 2.50626,0.69417 1.519512,1.23055 1.30038,4.58664 -0.859524,13.16429 -2.010168,7.98288 -2.090184,10.39352 -0.404532,12.18782 1.655328,1.76204 3.891264,2.14564 8.166385,1.4012 z m 17.78044,-0.80987 c 4.53551,-1.25974 5.8634,-7.59951 2.25532,-10.76744 -2.05744,-1.80644 -4.33391,-2.09117 -6.79888,-0.85034 -4.6107,2.32111 -4.67726,8.68572 -0.11604,11.09772 2.02275,1.06962 2.49228,1.122 4.65964,0.52006 z m 4.06067,-17.63589 c 0.95203,-2.96373 9.65381,-34.77601 9.65381,-35.29278 0,-0.30375 -0.26352,-0.65335 -0.58558,-0.77694 -0.90319,-0.34656 -10.42136,1.07036 -10.96732,1.63267 -0.56153,0.57834 -5.74554,34.32563 -5.408,35.20534 0.16844,0.4389 1.07414,0.56655 3.54857,0.58928 h 3.32243 z"
       id="path828-1"
       inkscape:connector-curvature="0"
       sodipodi:nodetypes="ccccccscccscssccsccccccccccccsccccccccscsscscccscccssccccccscccssccccsccccccccscc" />
    <g
       id="g1405"
       transform="translate(0.93544338,125.75031)">
      <path
         style="fill:#fba104;stroke:none;stroke-width:0.2;stroke-linecap:butt;stroke-miterlimit:4;stroke-dasharray:0.2, 0.2;stroke-dashoffset:0;stroke-opacity:1;paint-order:markers stroke fill"
         d="m 296.85886,139.4781 c 1.78575,-0.43606 3.394,-0.94207 3.57389,-1.12448 0.17989,-0.1824 0.80435,-2.57862 1.38769,-5.32494 0.58333,-2.74631 1.10714,-5.03983 1.16401,-5.0967 0.0569,-0.0569 0.53457,0.0768 1.06156,0.29695 1.25239,0.52328 4.31421,0.51458 5.92686,-0.0168 4.01921,-1.32448 6.91398,-5.16045 8.27073,-10.95989 1.20285,-5.14159 0.944,-9.59468 -0.69542,-11.96364 -1.49536,-2.16078 -5.05333,-2.94991 -8.09239,-1.79483 -0.76555,0.29097 -1.41034,0.5291 -1.43287,0.52917 -0.0225,7e-5 0.0225,-0.47325 0.10013,-1.05183 0.1301,-0.97001 0.0818,-1.07464 -0.62049,-1.34314 -1.14186,-0.43658 -6.33068,-0.22454 -6.81369,0.27844 -0.21436,0.22321 -1.15851,4.10158 -2.15775,8.86354 -0.97714,4.65667 -2.01367,8.97342 -2.3034,9.5928 -0.73784,1.57731 -1.84703,2.44574 -3.12378,2.44574 -1.79419,0 -1.79662,-0.18151 -0.11117,-8.28103 0.82372,-3.9584 1.65456,-7.90797 1.84631,-8.77683 0.54643,-2.47591 0.48188,-2.52207 -3.5194,-2.51726 -1.85027,0.002 -3.52021,0.10304 -3.71097,0.22402 -0.19077,0.12098 -0.52666,1.10142 -0.74643,2.17876 -0.21978,1.07734 -0.99412,4.75677 -1.72078,8.17651 -1.91306,9.00319 -1.80892,11.58783 0.54677,13.57002 1.82656,1.53694 4.92557,1.64241 7.70985,0.26239 1.18653,-0.58809 1.56889,-0.68435 1.56889,-0.39498 0,0.21045 -0.55145,3.04 -1.22545,6.2879 -0.674,3.2479 -1.15399,6.09151 -1.06664,6.31913 0.21354,0.55647 0.43548,0.53637 4.18394,-0.37897 z m 7.24706,-16.38763 c -0.084,-0.13592 0.44474,-3.0506 1.17501,-6.47705 0.73026,-3.42645 1.32775,-6.40173 1.32775,-6.61173 0,-0.59231 1.22348,-1.90452 2.12323,-2.27721 1.91966,-0.79515 2.8345,0.88252 2.52571,4.63173 -0.41681,5.06056 -1.98483,9.13413 -4.03672,10.48703 -0.78146,0.51524 -2.84798,0.67926 -3.11498,0.24723 z m -126.11053,5.70869 c 2.11922,-0.37802 2.56529,-0.90796 1.55352,-1.84563 -1.19017,-1.10301 -1.18768,-2.10223 0.0178,-7.14674 0.59656,-2.49644 1.16262,-5.21094 1.25791,-6.03224 0.24237,-2.08898 -0.26274,-3.98854 -1.37385,-5.16666 l -0.89301,-0.94688 1.3003,-1.42273 c 4.48974,-4.91249 3.58727,-10.965499 -2.01703,-13.528525 -4.59294,-2.1005 -10.8227,-1.55047 -16.18984,1.4294 -2.2094,1.226676 -5.78761,4.765016 -6.65069,6.576585 -0.93156,1.9553 -1.05463,5.01655 -0.25863,6.43285 0.85397,1.51943 3.36409,2.74096 4.73699,2.30522 0.48542,-0.15406 0.50949,-0.34256 0.36639,-2.86941 -0.18115,-3.19898 0.22276,-4.96336 1.59372,-6.961719 1.81112,-2.63996 4.51179,-4.09505 8.57402,-4.61958 2.06471,-0.26661 2.47893,-0.24539 3.76864,0.19301 2.07174,0.70423 2.65289,1.64786 2.64948,4.30198 -0.003,2.414849 -0.71189,4.181089 -2.32535,5.794549 -0.97539,0.97538 -2.81195,1.88078 -3.14319,1.54954 -0.0792,-0.0792 0.28596,-2.15154 0.81148,-4.60518 1.06356,-4.965779 1.13709,-5.760579 0.55367,-5.984459 -0.48687,-0.18683 -7.00536,0.78433 -7.31013,1.0891 -0.11878,0.11878 -1.5187,6.284359 -3.11093,13.701279 -3.78206,17.61765 -3.62848,16.79112 -3.17345,17.07922 0.59893,0.37922 7.00312,0.30214 7.3257,-0.0882 0.2485,-0.30069 1.33901,-5.14914 3.13915,-13.95677 0.37177,-1.81901 0.79724,-3.45612 0.94549,-3.63803 0.41159,-0.50504 1.6398,-0.39449 2.41801,0.21765 1.11374,0.87607 0.9825,3.16009 -0.51337,8.93422 -1.43354,5.53357 -1.47373,6.96165 -0.23238,8.25734 1.23516,1.28924 2.8711,1.54094 6.1796,0.95078 z m 15.97898,-1.03477 c 2.25514,-1.03589 4.44631,-3.34887 5.74387,-6.06317 1.01649,-2.12635 2.11544,-5.75439 2.11544,-6.98387 0,-0.45253 0.1978,-0.64155 0.81267,-0.7766 0.44697,-0.0982 0.86632,-0.12484 0.93189,-0.0593 0.0656,0.0656 -0.0602,0.88057 -0.27959,1.81112 -0.53038,2.25002 -0.53169,6.91915 -0.002,8.47259 0.89955,2.64003 3.4391,4.46409 6.21514,4.46409 2.13718,0 3.76117,-0.64741 5.4146,-2.15855 l 1.43188,-1.30866 0.39729,0.76829 c 0.58826,1.13757 2.13526,2.38388 3.20906,2.58532 2.48535,0.46626 5.71971,-0.56158 7.64206,-2.42854 l 0.98291,-0.95459 0.96117,1.12291 c 2.64022,3.0845 7.26709,3.17233 10.52549,0.19978 l 1.36801,-1.24799 0.63396,0.98341 c 0.35548,0.55142 1.15698,1.25332 1.82459,1.59784 2.30906,1.19161 6.08554,0.44696 8.41742,-1.65975 l 1.07661,-0.97265 0.38722,0.7444 c 1.3561,2.60703 4.86911,3.47662 8.24271,2.04037 2.40675,-1.02464 2.45855,-1.03131 2.55798,-0.32896 0.0865,0.61064 0.14308,0.62166 3.56718,0.69414 2.6968,0.0571 3.5622,-0.009 3.84774,-0.29476 0.2052,-0.20521 1.1714,-4.28136 2.18116,-9.20177 1.12431,-5.47865 1.9739,-9.0195 2.23706,-9.32347 0.49367,-0.57025 1.68876,-1.22969 2.22854,-1.22969 0.20574,0 0.5751,0.5264 0.82081,1.16979 0.57496,1.5055 0.99135,1.82913 2.35123,1.82746 1.52743,-0.002 2.72232,-0.69026 3.35674,-1.93383 0.96079,-1.8833 0.61751,-3.86049 -0.91962,-5.29675 -0.61053,-0.57046 -0.95388,-0.66146 -2.49589,-0.66146 -1.55235,0 -1.96797,0.11188 -3.15369,0.84897 l -1.3657,0.84897 v -0.75452 c 0,-0.44394 -0.17227,-0.82062 -0.41852,-0.91511 -0.23018,-0.0883 -1.88248,-0.1606 -3.67177,-0.1606 -2.38374,0 -3.33129,0.094 -3.54522,0.3518 -0.16058,0.19349 -0.99695,3.7356 -1.8586,7.87135 -0.86165,4.13576 -1.7692,8.02406 -2.01677,8.64067 -0.24757,0.61661 -0.86584,1.48611 -1.37393,1.93221 -0.76701,0.67345 -1.11037,0.79751 -2.02314,0.73098 -1.00318,-0.0731 -1.10731,-0.14957 -1.19046,-0.87389 -0.0501,-0.43656 0.60139,-4.09773 1.44778,-8.13593 l 1.5389,-7.34219 0.80118,-0.004 c 1.52327,-0.007 1.97325,-0.26996 2.29425,-1.34138 0.4,-1.33505 0.0154,-1.83001 -1.42186,-1.83001 -0.95828,0 -1.04199,-0.0544 -0.91631,-0.59531 0.0761,-0.32742 0.4075,-1.87988 0.73651,-3.449909 0.80509,-3.84189 0.90091,-3.75803 -3.55888,-3.11473 -1.92825,0.27814 -3.54714,0.64598 -3.73578,0.84884 -0.18311,0.19689 -0.54685,1.42955 -0.80832,2.73924 -0.62168,3.113929 -0.80204,3.571869 -1.40678,3.571869 -0.66742,0 -1.01151,0.45583 -1.23107,1.63087 -0.15768,0.84386 -0.10078,1.01126 0.43934,1.29261 0.34127,0.17776 0.65378,0.35029 0.69447,0.38339 0.191,0.1554 -2.63122,12.72291 -3.09006,13.76017 -0.75309,1.7025 -1.65499,2.51213 -2.7984,2.51213 -0.72534,0 -1.00729,-0.13947 -1.21832,-0.60264 -0.30299,-0.66499 -0.38637,-0.21666 3.24044,-17.42251 1.18484,-5.620969 2.07357,-10.430185 1.97496,-10.687155 -0.1973,-0.51415 -1.27503,-0.48301 -5.54469,0.16022 -2.4548,0.36983 -2.21849,-0.0143 -3.35569,5.454096 -0.44478,2.138779 -0.86012,3.940119 -0.92297,4.002979 -0.0629,0.0628 -0.54813,-0.0916 -1.07837,-0.34321 -1.48319,-0.70382 -4.80574,-0.47933 -6.8294,0.46144 -4.38656,2.03925 -8.01158,8.55436 -8.54828,15.36353 -0.14689,1.86353 -0.25031,2.16725 -1.01359,2.97656 -1.37765,1.46073 -3.03216,1.16649 -3.04036,-0.54071 -0.002,-0.44384 0.78379,-4.58909 1.74649,-9.21168 0.96271,-4.62259 1.68256,-8.58141 1.59968,-8.7974 -0.21278,-0.5545 -7.09119,-0.57952 -7.54936,-0.0275 -0.25515,0.30744 -0.45913,0.28404 -1.28917,-0.14789 -1.53813,-0.80039 -4.97423,-0.59992 -7.03149,0.41024 -1.68345,0.8266 -3.93962,2.94599 -5.11659,4.80638 -0.56807,0.89792 -1.02086,1.27022 -1.91567,1.57511 -1.66197,0.56629 -2.13585,0.52045 -2.13585,-0.2066 0,-1.14222 -0.78764,-3.62958 -1.48119,-4.67761 -2.04892,-3.09612 -8.02223,-3.2403 -11.92854,-0.28791 -1.63924,1.23894 -3.50061,3.56624 -4.5105,5.63955 -2.34003,4.80408 -3.00906,10.92572 -1.53382,14.03454 0.64914,1.36798 2.26206,2.77626 3.85535,3.36623 2.09091,0.77422 5.37134,0.62406 7.47481,-0.34216 z m -3.52993,-5.24323 c -1.41884,-2.65114 0.76119,-11.59077 3.56407,-14.61513 1.84824,-1.99429 3.85581,-0.62582 2.29665,1.56552 -0.89683,1.26047 -0.95012,3.09624 -0.12049,4.15095 0.55168,0.70134 0.55684,0.77641 0.1725,2.50707 -0.52165,2.34899 -1.98747,5.3977 -3.00816,6.25655 -1.0375,0.87299 -2.47388,0.93978 -2.90457,0.13504 z m 21.07124,-0.21458 c -1.95086,-2.15567 0.94654,-12.98837 3.97527,-14.86262 1.55042,-0.95943 2.85605,-0.48385 2.80024,1.02 -0.0614,1.65458 -2.4531,11.79842 -2.98457,12.65836 -0.97222,1.57309 -2.89536,2.17387 -3.79094,1.18426 z m 25.3257,0.29399 c -0.9745,-0.61964 -1.11822,-3.22325 -0.37556,-6.80358 1.16814,-5.63155 3.68722,-9.3307 5.96481,-8.75906 0.38539,0.0967 0.76974,0.35576 0.85411,0.57563 0.17798,0.4638 -1.86151,10.82081 -2.45569,12.47058 -0.69852,1.93946 -2.80475,3.2686 -3.98767,2.51643 z m 57.88177,-21.03123 c 1.42004,-0.95697 2.09594,-2.170799 2.09594,-3.764019 0,-1.74644 -0.75699,-2.94936 -2.38338,-3.787396 -2.08067,-1.07211 -4.09581,-0.50069 -5.51115,1.562766 -0.86023,1.25415 -0.73671,3.84352 0.23361,4.897119 1.65205,1.79384 3.87563,2.22998 5.56498,1.09153 z M 164.76739,76.527185 c 0.30718,-0.19447 0.32014,-0.49514 0.0741,-1.72015 -0.36126,-1.79884 -0.0678,-4.56793 0.91351,-8.61942 0.81584,-3.36841 2.6362,-8.89482 3.87824,-11.77396 l 0.91312,-2.11666 1.15771,0.0586 c 1.54518,0.0782 4.04891,0.95145 4.14562,1.44591 0.0426,0.2179 -0.70001,4.0658 -1.65029,8.5509 -1.29555,6.11475 -1.65432,8.24323 -1.43415,8.50851 0.33138,0.3993 6.71036,0.51408 7.31305,0.1316 0.18554,-0.11775 0.9312,-3.00319 1.65701,-6.41209 0.72582,-3.40891 1.73126,-8.10301 2.23431,-10.43134 2.23055,-10.32392 3.84112,-18.07837 3.84112,-18.49394 0,-1.17725 -4.36465,-1.7127 -7.14375,-0.87638 -3.30614,0.99492 -7.66428,4.82063 -11.74292,10.30834 l -2.31061,3.10885 h -2.08833 c -1.14859,0 -2.71928,0.13398 -3.49043,0.29773 -3.15284,0.66949 -5.92451,2.76366 -6.58779,4.97749 -0.84738,2.8283 1.60094,5.15689 4.5067,4.2863 1.72557,-0.51699 2.36657,-1.85381 1.75113,-3.65207 -0.1525,-0.4456 -0.0448,-0.67197 0.48504,-1.01911 0.67421,-0.44176 2.78351,-1.03473 2.98038,-0.83786 0.0562,0.0561 -0.67027,1.69738 -1.61426,3.6472 -4.63617,9.57603 -5.83963,16.38544 -3.37684,19.10679 0.65366,0.72228 1.81306,1.26493 3.20601,1.50055 1.70604,0.28859 1.96062,0.29117 2.3823,0.0242 z m 9.62723,-26.85296 c -1.04872,-0.31538 -1.96966,-0.6363 -2.04653,-0.71317 -0.18682,-0.18682 2.28099,-4.46795 3.55222,-6.16235 1.50997,-2.01263 2.72407,-3.24421 2.84386,-2.88483 0.0907,0.27202 -1.54469,8.6501 -1.93941,9.93572 -0.1658,0.54003 0.0118,0.55295 -2.41014,-0.17537 z m 31.68424,21.29573 c 0.73724,-0.28013 1.87638,-0.94849 2.53143,-1.48525 l 1.19099,-0.97593 0.91379,1.06757 c 1.81947,2.12564 5.14388,2.50043 8.30062,0.9358 l 1.53436,-0.7605 0.27612,0.73153 0.27613,0.73152 3.39642,-0.004 c 1.86803,-0.002 3.55167,-0.10253 3.74142,-0.22288 0.1901,-0.12057 0.75692,-2.22736 1.26243,-4.6923 1.71457,-8.36037 2.5173,-11.82157 2.93295,-12.64627 0.68352,-1.35618 1.70163,-2.27826 2.51554,-2.27826 1.23505,0 1.23328,0.85765 -0.0142,6.87917 -2.51549,12.14179 -2.56582,12.44059 -2.14061,12.70948 0.61414,0.38836 7.01867,0.32236 7.33827,-0.0756 0.14608,-0.18191 1.00478,-3.88387 1.90822,-8.22659 0.90344,-4.34271 1.80612,-8.28717 2.00596,-8.76545 0.61369,-1.46876 1.66292,-2.52099 2.51381,-2.52099 1.5978,0 1.66513,1.32637 0.36691,7.22801 -1.55694,7.07777 -1.50208,9.02047 0.3114,11.02778 1.27913,1.41585 2.80576,1.95742 5.0613,1.79551 2.02523,-0.14537 3.51615,-0.79781 5.1066,-2.23469 l 1.04699,-0.94589 1.07943,1.11228 c 2.88507,2.97286 7.30374,2.87309 10.57501,-0.23879 0.64107,-0.60984 1.20587,-0.98794 1.2551,-0.84022 0.27361,0.8208 1.3934,2.08113 2.31067,2.60065 2.12256,1.20219 5.67309,0.55954 8.27601,-1.49795 l 1.27127,-1.00488 0.86308,1.02802 c 1.17492,1.39947 2.59364,2.07987 4.3218,2.0727 2.5452,-0.0106 4.83734,-1.64471 5.52464,-3.93869 0.46474,-1.5512 0.23181,-1.87634 -1.34428,-1.87634 -2.26014,0 -2.29412,0.55101 0.89532,-14.51873 1.54341,-7.29244 2.80621,-13.48988 2.80621,-13.77209 0,-0.2822 -0.20836,-0.57673 -0.46302,-0.65451 -0.6529,-0.1994 -6.90404,0.75239 -7.25652,1.10487 -0.16016,0.16016 -0.98793,3.54298 -1.83949,7.51739 -0.85157,3.97441 -2.03086,9.48285 -2.62066,12.24097 -1.46797,6.86487 -2.20433,8.34669 -4.14775,8.34669 -1.43859,0 -1.62038,-0.78812 -0.93477,-4.05253 2.17352,-10.34879 3.04451,-14.96311 2.89699,-15.34754 -0.14754,-0.38448 -0.64087,-0.44368 -3.69752,-0.44368 -2.33494,0 -3.63162,0.10435 -3.83599,0.30872 -0.23524,0.23524 -0.5594,0.19569 -1.36192,-0.1662 -0.82857,-0.37364 -1.5217,-0.45032 -3.24992,-0.35957 -1.85919,0.0976 -2.45392,0.25245 -3.87058,1.00759 -2.22755,1.18737 -4.52718,3.71682 -5.88415,6.47222 -1.19417,2.42484 -2.36387,6.72042 -2.36387,8.68108 0,1.41308 -0.70046,2.89601 -1.59375,3.37409 -0.82924,0.44379 -2.06408,0.31302 -2.36569,-0.25054 -0.42768,-0.79913 -0.34795,-1.40201 0.82264,-6.21991 1.37971,-5.67857 1.49459,-8.09193 0.47923,-10.06723 -1.71935,-3.34482 -6.88047,-3.77261 -10.20539,-0.8459 -0.87853,0.77331 -1.28679,0.99243 -1.37213,0.73642 -0.25971,-0.77913 -1.98503,-2.39173 -2.87215,-2.68451 -1.37877,-0.45503 -4.24061,-0.21477 -5.62867,0.47255 -1.16063,0.57471 -1.17601,0.57532 -1.53635,0.0609 -0.32984,-0.4709 -0.68476,-0.51966 -3.78247,-0.51966 -3.261,0 -3.43523,0.0274 -3.78198,0.59531 -0.19992,0.32742 -1.05134,3.92906 -1.89205,8.00365 -0.8407,4.07458 -1.7649,7.91509 -2.05377,8.53446 -0.73526,1.57651 -1.84492,2.44574 -3.12221,2.44574 -1.55466,0 -1.70105,-0.50437 -1.05421,-3.6322 0.29407,-1.42203 1.1177,-5.38347 1.83028,-8.80321 0.89761,-4.30768 1.22006,-6.35995 1.0497,-6.68073 -0.21463,-0.40415 -0.67362,-0.46251 -3.61002,-0.45897 -1.85027,0.002 -3.5136,0.099 -3.69629,0.21494 -0.18269,0.11598 -0.91631,3.00143 -1.63027,6.41209 -1.77957,8.50127 -2.05775,9.63643 -2.63953,10.77091 -0.82056,1.6001 -1.65644,2.22614 -2.84234,2.1288 -1.01075,-0.083 -1.02326,-0.0975 -1.10069,-1.28392 -0.0471,-0.72147 0.31068,-2.83165 0.89719,-5.29167 1.53925,-6.45615 1.51364,-9.22615 -0.10306,-11.14749 -1.55616,-1.84939 -5.00073,-2.38896 -7.59384,-1.18951 l -1.32179,0.61139 -0.2731,-0.54865 c -0.25243,-0.50712 -0.53496,-0.55422 -3.7329,-0.62221 -2.83519,-0.0603 -3.52,-0.001 -3.79328,0.32827 -0.53192,0.64092 -5.28036,23.73489 -4.99342,24.28539 0.21079,0.40439 0.66736,0.46251 3.60547,0.45897 1.85028,-0.002 3.52048,-0.10319 3.71157,-0.22437 0.20324,-0.12889 1.04863,-3.57945 2.03702,-8.31442 1.64325,-7.87204 2.1932,-9.66086 3.31506,-10.78272 0.56163,-0.56162 1.9621,-0.7 2.2569,-0.223 0.40053,0.64807 0.10634,3.29669 -0.9276,8.35119 -0.98709,4.82551 -1.05831,5.43458 -0.78705,6.73017 0.49424,2.36049 1.58138,3.7114 3.54782,4.40859 1.29322,0.45851 3.70294,0.37177 5.17122,-0.18613 z m 60.14951,-5.98368 c -0.36712,-0.5603 -0.41504,-1.12177 -0.2879,-3.37344 0.3212,-5.68854 2.87968,-11.2518 5.39126,-11.72298 0.73088,-0.13711 1.04376,-0.0614 1.45821,0.35309 0.52716,0.52717 0.52699,0.53103 -0.18007,4.06898 -1.58541,7.93294 -1.94897,9.1702 -3.02784,10.30433 -0.79898,0.8399 -1.17793,1.04219 -1.95233,1.04219 -0.73709,0 -1.06349,-0.15656 -1.40133,-0.67217 z m -45.85314,-20.56694 c 1.42004,-0.95696 2.09595,-2.17079 2.09595,-3.76401 0,-3.48934 -4.00973,-5.54525 -6.74547,-3.4586 -1.36427,1.04058 -1.79996,2.05831 -1.66716,3.89427 0.11988,1.65734 0.63784,2.46793 2.19492,3.435 1.12672,0.69978 2.99691,0.65138 4.12176,-0.10666 z"
         id="path1407"
         inkscape:connector-curvature="0"
         sodipodi:nodetypes="cccsccsccccccccsccccccccsscccccssccccccscccscccccccsccscssscccccccccccsccccsccccscsccccsccccccccsccccsccscscsscccscccscssccsccccscssccccscsccccccccscscccccccccccccccsccscccccscssccccccccccccsssccsssccccscccccsccccccccscccccccscccscssccccccccsccccssscsccsscssccccsccsccccccscccscccccccccsscccccccccccccccccsccccsccssscc" />
    </g>
  </g>
</svg>
