<?xml version="1.0" encoding="UTF-8" standalone="no"?>
<!-- Created with Inkscape (http://www.inkscape.org/) -->

<svg
   xmlns:dc="http://purl.org/dc/elements/1.1/"
   xmlns:cc="http://creativecommons.org/ns#"
   xmlns:rdf="http://www.w3.org/1999/02/22-rdf-syntax-ns#"
   xmlns:svg="http://www.w3.org/2000/svg"
   xmlns="http://www.w3.org/2000/svg"
   xmlns:sodipodi="http://sodipodi.sourceforge.net/DTD/sodipodi-0.dtd"
   xmlns:inkscape="http://www.inkscape.org/namespaces/inkscape"
   width="104.96049mm"
   height="104.96049mm"
   viewBox="0 0 104.96048 104.96049"
   version="1.1"
   id="svg8"
   inkscape:version="0.92.3 (2405546, 2018-03-11)"
   sodipodi:docname="logo_letters.svg"
   inkscape:export-filename="D:\TFM_aux\Inkscape\favicon.png"
   inkscape:export-xdpi="61.950932"
   inkscape:export-ydpi="61.950932">
  <defs
     id="defs2" />
  <sodipodi:namedview
     id="base"
     pagecolor="#ffffff"
     bordercolor="#666666"
     borderopacity="1.0"
     inkscape:pageopacity="0.0"
     inkscape:pageshadow="2"
     inkscape:zoom="2.8"
     inkscape:cx="0.10401867"
     inkscape:cy="202.28696"
     inkscape:document-units="mm"
     inkscape:current-layer="g826"
     showgrid="false"
     inkscape:window-width="3840"
     inkscape:window-height="2066"
     inkscape:window-x="-11"
     inkscape:window-y="-11"
     inkscape:window-maximized="1" />
  <metadata
     id="metadata5">
    <rdf:RDF>
      <cc:Work
         rdf:about="">
        <dc:format>image/svg+xml</dc:format>
        <dc:type
           rdf:resource="http://purl.org/dc/dcmitype/StillImage" />
        <dc:title></dc:title>
      </cc:Work>
    </rdf:RDF>
  </metadata>
  <g
     inkscape:label="Capa 1"
     inkscape:groupmode="layer"
     id="layer1"
     transform="translate(-9.2816496,-47.513937)">
    <g
       id="g826"
       transform="translate(0.09449402,-0.094494)">
      <path
         style="fill:#000000;fill-opacity:1;stroke:none;stroke-width:0.34809357;stroke-opacity:1"
         d="m 29.788194,125.86656 c 0.444999,-0.17071 0.502577,-0.66384 0.33539,-2.87177 -0.347396,-4.58751 1.533057,-12.62652 5.049178,-21.58547 l 1.960854,-4.996164 1.569609,0.213058 c 1.738364,0.235981 4.786784,1.17226 5.014062,1.54002 0.08007,0.129726 -0.776628,4.542856 -1.903974,9.807026 -1.127335,5.26414 -2.052613,9.90686 -2.056171,10.31721 -0.003,0.41024 0.241334,0.84105 0.544172,0.95725 1.07353,0.41192 7.647534,0.22811 8.275982,-0.23146 0.806124,-0.58944 9.729851,-42.217718 9.244486,-43.124625 -0.437732,-0.817915 -3.793993,-1.461078 -6.112651,-1.171375 -3.48695,0.435655 -6.459626,2.277292 -10.920598,6.765546 -2.205242,2.218735 -4.85645,5.428182 -6.034475,7.031409 l -2.024931,2.997342 -3.538102,0.187252 c -5.532604,0.292812 -9.505207,2.157684 -11.051018,5.187741 -0.873289,1.71179 -0.773205,4.08612 0.21845,5.18186 0.991827,1.09597 3.036178,1.5619 4.685162,1.06789 1.895813,-0.56804 2.581378,-1.68193 2.278448,-3.702063 l -0.236046,-1.574057 1.501768,-0.681546 c 1.494479,-0.678225 3.247411,-0.933481 2.992524,-0.435763 -5.828225,11.380529 -8.533134,20.037059 -7.584142,24.271599 0.206763,0.92266 0.68534,2.11206 1.063493,2.64315 1.034991,1.45345 5.162785,2.80681 6.72853,2.20594 z m 12.05107,-32.395024 c -1.435886,-0.425253 -2.664813,-0.782758 -2.730942,-0.794477 -0.197269,-0.03485 2.0123,-3.85712 3.638985,-6.294868 1.385248,-2.075959 4.661459,-5.678282 4.661459,-5.125477 0,0.588115 -2.540553,12.310397 -2.737001,12.628644 -0.145145,0.235172 -1.123971,0.09227 -2.832501,-0.413822 z M 84.16795,120.12348 c 1.199504,-0.20888 2.45643,-0.58128 2.793165,-0.82748 0.572991,-0.41903 0.552159,-0.51908 -0.324904,-1.56148 -1.431147,-1.70077 -1.384141,-3.0651 0.342322,-9.93667 1.517731,-6.04081 1.653987,-9.195189 0.482883,-11.180032 -0.432942,-0.733804 -1.092847,-1.548284 -1.466448,-1.809958 -0.651495,-0.456331 -0.615713,-0.543712 0.875493,-2.137938 2.541086,-2.716627 3.510185,-4.930361 3.511015,-8.020304 8.1e-4,-2.002294 -0.172839,-2.935182 -0.743944,-4.003062 -1.525983,-2.853418 -4.34686,-4.727393 -8.413591,-5.589352 -4.955572,-1.050358 -9.517367,-0.343828 -14.953555,2.316022 -7.277613,3.56084 -11.259536,9.304452 -10.123373,14.602201 0.476732,2.222919 1.856791,3.640802 3.985604,4.094823 2.825448,0.602613 2.887352,0.521351 2.690074,-3.531887 -0.1502,-3.085873 -0.07207,-3.802001 0.612167,-5.608523 1.904035,-5.02729 7.191532,-8.198875 13.666005,-8.197255 3.636176,8.1e-4 5.724848,1.587735 6.065273,4.607951 0.350154,3.106574 -1.661091,7.431883 -4.178422,8.985887 -1.142048,0.705004 -2.617117,1.212975 -2.846814,0.980325 -0.07003,-0.07095 0.40727,-2.552621 1.060489,-5.515032 0.653227,-2.962423 1.187682,-5.821141 1.187682,-6.352712 0,-0.905205 -0.09381,-0.966403 -1.479387,-0.965173 -2.192162,10e-4 -7.647729,0.951915 -7.910726,1.377445 -0.125511,0.203094 -1.517535,6.437441 -3.093399,13.854109 -1.575841,7.416625 -3.310915,15.565975 -3.855692,18.109725 -1.247311,5.82393 -1.365604,5.64589 3.745693,5.63852 2.044423,-0.002 3.952099,-0.15151 4.23927,-0.33017 0.35158,-0.21872 1.220265,-3.83607 2.784758,-11.04666 l 2.262606,-10.721756 1.24527,-0.104494 c 0.839127,-0.07043 1.520274,0.118264 2.08855,0.578478 1.266256,1.025467 1.08365,3.822202 -0.716271,10.970242 -1.675139,6.6524 -1.741821,8.66127 -0.337113,10.15652 1.379444,1.46836 3.242725,1.78803 6.80532,1.16766 z m 14.817043,-0.67489 c 3.779587,-1.04979 4.886157,-6.33293 1.879427,-8.97287 -1.714524,-1.50537 -3.611588,-1.74264 -5.665729,-0.70862 -3.842253,1.93426 -3.897719,7.2381 -0.09668,9.2481 1.685627,0.89135 2.076902,0.935 3.883037,0.43339 z m 3.383887,-14.69658 c 0.79336,-2.46977 8.04484,-28.980012 8.04484,-29.410648 0,-0.253115 -0.2196,-0.544457 -0.48798,-0.647444 -0.75266,-0.288807 -8.68447,0.891967 -9.13944,1.360558 -0.46794,0.48195 -4.787946,28.604684 -4.506658,29.337774 0.140359,0.36575 0.895108,0.47213 2.957135,0.49107 h 2.768693 z"
         id="path828-1"
         inkscape:connector-curvature="0"
         sodipodi:nodetypes="ccccccscccscssccsccccccccccccsccccccccscsscscccscccssccccccscccssccccsccccccccscc" />
    </g>
  </g>
</svg>
