<?xml version="1.0" encoding="UTF-8" standalone="no"?>
<!-- Created with Inkscape (http://www.inkscape.org/) -->

<svg
   xmlns:dc="http://purl.org/dc/elements/1.1/"
   xmlns:cc="http://creativecommons.org/ns#"
   xmlns:rdf="http://www.w3.org/1999/02/22-rdf-syntax-ns#"
   xmlns:svg="http://www.w3.org/2000/svg"
   xmlns="http://www.w3.org/2000/svg"
   xmlns:sodipodi="http://sodipodi.sourceforge.net/DTD/sodipodi-0.dtd"
   xmlns:inkscape="http://www.inkscape.org/namespaces/inkscape"
   width="103.87048mm"
   height="81.985832mm"
   viewBox="0 0 103.87048 81.985832"
   version="1.1"
   id="svg8"
   inkscape:version="0.92.3 (2405546, 2018-03-11)"
   sodipodi:docname="logo.svg"
   inkscape:export-filename="D:\TFM_aux\Inkscape\logo.png"
   inkscape:export-xdpi="250.60117"
   inkscape:export-ydpi="250.60117">
  <defs
     id="defs2" />
  <sodipodi:namedview
     id="base"
     pagecolor="#ffffff"
     bordercolor="#666666"
     borderopacity="1.0"
     inkscape:pageopacity="0.0"
     inkscape:pageshadow="2"
     inkscape:zoom="1.979899"
     inkscape:cx="493.51995"
     inkscape:cy="234.26993"
     inkscape:document-units="mm"
     inkscape:current-layer="g826"
     showgrid="false"
     inkscape:window-width="3840"
     inkscape:window-height="2066"
     inkscape:window-x="-11"
     inkscape:window-y="-11"
     inkscape:window-maximized="1" />
  <metadata
     id="metadata5">
    <rdf:RDF>
      <cc:Work
         rdf:about="">
        <dc:format>image/svg+xml</dc:format>
        <dc:type
           rdf:resource="http://purl.org/dc/dcmitype/StillImage" />
        <dc:title></dc:title>
      </cc:Work>
    </rdf:RDF>
  </metadata>
  <g
     inkscape:label="Capa 1"
     inkscape:groupmode="layer"
     id="layer1"
     transform="translate(-9.2923369,-58.710409)">
    <g
       id="g826"
       transform="translate(0.09449402,-0.094494)">
      <path
         style="fill:#fdfcfb;stroke-width:0.26458332"
         d="m 15.100149,98.940475 v -35.71875 h 45.376042 45.376039 v 35.71875 35.718745 H 60.476191 15.100149 Z"
         id="path842"
         inkscape:connector-curvature="0" />
      <path
         style="fill:#fba104;stroke-width:0.26458332"
         d="m 13.02128,99.97991 c 0,0 -8.4189902,-27.29976 0,-35.71875 10.695235,-10.695235 32.203575,0.128219 48.305355,0.09449 15.997789,-0.03351 35.96647,-12.273795 47.992565,-0.294946 8.43554,8.402403 0,23.812502 0,35.71875 0,11.906246 8.4024,27.283196 0,35.718736 -11.978848,12.0261 -31.427997,-0.20836 -47.142118,-0.17753 -16.38572,0.0321 -38.460567,11.07322 -49.155802,0.37798 -8.4189867,-8.41899 0,-22.35525 0,-35.718734 z m 23.91298,19.15787 c 0.33824,-0.12979 0.38201,-0.50459 0.25493,-2.1828 -0.26406,-3.48697 1.16526,-9.59736 3.83784,-16.40699 l 1.49043,-3.79754 1.19305,0.16194 c 1.32132,0.17937 3.6384,0.89103 3.81116,1.17056 0.0609,0.0986 -0.59031,3.45299 -1.4472,7.45424 -0.85689,4.00125 -1.56018,7.53015 -1.56288,7.84201 -0.003,0.31185 0.18343,0.63928 0.41362,0.7276 0.81598,0.31312 5.81283,0.1734 6.29051,-0.17589 0.61273,-0.44804 7.39559,-32.08939 7.02667,-32.77872 -0.33272,-0.62169 -2.88379,-1.11056 -4.64618,-0.89036 -2.65041,0.33114 -4.90992,1.73096 -8.30067,5.14245 -1.67619,1.68644 -3.74023,4.09147 -4.58676,5.34452 l -1.53914,2.27826 -2.68928,0.14233 c -4.20529,0.22256 -7.22484,1.64004 -8.3998,3.94316 -0.66378,1.30112 -0.5877,3.10583 0.16604,3.9387 0.75388,0.83302 2.30778,1.18719 3.56116,0.81167 1.441,-0.43174 1.96209,-1.2784 1.73183,-2.81389 l -0.17942,-1.19643 1.14149,-0.51804 c 1.13594,-0.51551 2.46833,-0.70953 2.27459,-0.33122 -4.42999,8.65026 -6.48597,15.23002 -5.76465,18.44868 0.15716,0.70129 0.52092,1.60533 0.80835,2.00899 0.78669,1.1048 3.9242,2.13346 5.11431,1.67677 z m 9.15993,-24.62324 c -1.0914,-0.32323 -2.0255,-0.59497 -2.07577,-0.60387 -0.14994,-0.0265 1.52954,-2.93177 2.76597,-4.78469 1.05292,-1.57792 3.54314,-4.31602 3.54314,-3.89584 0,0.44703 -1.93106,9.35705 -2.08037,9.59895 -0.11033,0.17875 -0.85433,0.0701 -2.15297,-0.31455 z m 32.17373,20.25794 c 0.91173,-0.15877 1.86711,-0.4418 2.12306,-0.62897 0.43553,-0.31846 0.4197,-0.39454 -0.24696,-1.18682 -1.0878,-1.29277 -1.05207,-2.32978 0.2602,-7.55283 1.15362,-4.59156 1.25718,-6.98919 0.36704,-8.49785 -0.32908,-0.55776 -0.83067,-1.17684 -1.11464,-1.37574 -0.4952,-0.34685 -0.468,-0.41327 0.66546,-1.62503 1.93146,-2.06489 2.66806,-3.74753 2.66869,-6.09617 5.3e-4,-1.52193 -0.13137,-2.23101 -0.56546,-3.0427 -1.1599,-2.16886 -3.30403,-3.59326 -6.39511,-4.24843 -3.76669,-0.79837 -7.23408,-0.26134 -11.36609,1.76039 -5.53166,2.70657 -8.55829,7.07225 -7.6947,11.09903 0.36236,1.68962 1.41133,2.76735 3.02943,3.11245 2.1476,0.45804 2.19465,0.39627 2.0447,-2.68456 -0.11416,-2.34555 -0.0548,-2.88988 0.46531,-4.263 1.44724,-3.82121 5.46623,-6.23191 10.38743,-6.23068 2.76383,6.9e-4 4.35142,1.20683 4.61017,3.50248 0.26615,2.36128 -1.26259,5.64891 -3.17599,6.8301 -0.86806,0.53587 -1.98925,0.92197 -2.16384,0.74514 -0.0532,-0.0539 0.30956,-1.94023 0.80607,-4.19194 0.49651,-2.25171 0.90275,-4.4246 0.90275,-4.82865 0,-0.68804 -0.0713,-0.73456 -1.12448,-0.73362 -1.66624,0.001 -5.81298,0.72354 -6.01288,1.04699 -0.0954,0.15437 -1.15347,4.89305 -2.35127,10.5304 -1.19779,5.63734 -2.5166,11.83161 -2.93068,13.76504 -0.94808,4.42676 -1.03799,4.2914 2.84707,4.28583 1.55395,-0.002 3.00396,-0.11516 3.22224,-0.25097 0.26723,-0.16626 0.95868,-2.90912 2.11667,-8.39647 l 1.71979,-8.14953 0.94652,-0.0794 c 0.63782,-0.0535 1.15555,0.0899 1.5875,0.4397 0.96247,0.77945 0.82367,2.90522 -0.54444,8.33836 -1.27326,5.05648 -1.32394,6.58338 -0.25623,7.71991 1.0485,1.11608 2.46477,1.35908 5.17267,0.88752 z m 11.26232,-0.51298 c 2.87283,-0.79794 3.71394,-4.81362 1.42854,-6.82022 -1.30319,-1.14422 -2.74514,-1.32455 -4.30648,-0.53857 -2.92047,1.47017 -2.96263,5.50156 -0.0735,7.02937 1.28123,0.67752 1.57864,0.71072 2.95146,0.32942 z m 2.57206,-11.17074 c 0.60303,-1.87729 6.114811,-22.02751 6.114811,-22.35483 0,-0.19239 -0.16689,-0.41384 -0.370891,-0.49212 -0.57206,-0.21952 -6.601,0.67798 -6.94681,1.03415 -0.35568,0.36633 -3.63929,21.74223 -3.42548,22.29943 0.10668,0.27801 0.68029,0.37326 2.24769,0.37326 h 2.10445 z"
         id="path828"
         inkscape:connector-curvature="0"
         sodipodi:nodetypes="cssszssssccccccscccscssccsccccccccccccsccccccccscsscscccscccssccccccscccssccccsccccccccsccc" />
    </g>
  </g>
</svg>
