<?xml version="1.0" encoding="UTF-8" standalone="no"?>
<!-- Created with Inkscape (http://www.inkscape.org/) -->

<svg
   xmlns:dc="http://purl.org/dc/elements/1.1/"
   xmlns:cc="http://creativecommons.org/ns#"
   xmlns:rdf="http://www.w3.org/1999/02/22-rdf-syntax-ns#"
   xmlns:svg="http://www.w3.org/2000/svg"
   xmlns="http://www.w3.org/2000/svg"
   xmlns:sodipodi="http://sodipodi.sourceforge.net/DTD/sodipodi-0.dtd"
   xmlns:inkscape="http://www.inkscape.org/namespaces/inkscape"
   version="1.1"
   id="svg825"
   width="163.84"
   height="163.84"
   viewBox="0 0 163.84 163.84"
   sodipodi:docname="gazelle.svg"
   inkscape:version="0.92.3 (2405546, 2018-03-11)">
  <metadata
     id="metadata831">
    <rdf:RDF>
      <cc:Work
         rdf:about="">
        <dc:format>image/svg+xml</dc:format>
        <dc:type
           rdf:resource="http://purl.org/dc/dcmitype/StillImage" />
        <dc:title></dc:title>
      </cc:Work>
    </rdf:RDF>
  </metadata>
  <defs
     id="defs829" />
  <sodipodi:namedview
     pagecolor="#ffffff"
     bordercolor="#666666"
     borderopacity="1"
     objecttolerance="10"
     gridtolerance="10"
     guidetolerance="10"
     inkscape:pageopacity="0"
     inkscape:pageshadow="2"
     inkscape:window-width="2695"
     inkscape:window-height="2054"
     id="namedview827"
     showgrid="false"
     inkscape:zoom="5.7617189"
     inkscape:cx="154.42245"
     inkscape:cy="105.03323"
     inkscape:window-x="1133"
     inkscape:window-y="0"
     inkscape:window-maximized="0"
     inkscape:current-layer="g1378" />
  <g
     id="g1378"
     transform="translate(4.212028e-6,-0.17355931)">
    <path
       style="fill:#000000;stroke-width:0.31999999;fill-opacity:1;stroke:none;stroke-opacity:1"
       d="m 28.730494,162.84944 c -0.55629,-0.50374 -1.477658,-1.63588 -2.047485,-2.51588 -0.785355,-1.21284 -1.257521,-1.62538 -1.951329,-1.70488 l -0.91528,-0.10488 0.223901,-1.81512 c 0.327562,-2.65549 0.306164,-3.3008 -0.267103,-8.05512 -0.291067,-2.41393 -0.521092,-6.72023 -0.52134,-9.76 -2.85e-4,-3.50529 -0.171133,-6.33201 -0.480388,-7.94815 -0.26397,-1.37948 -0.479945,-3.67402 -0.479945,-5.09897 0,-3.99941 1.18547,-5.92126 4.774225,-7.73982 1.617004,-0.8194 4.169541,-3.7777 5.038745,-5.83973 0.449011,-1.0652 0.463795,-1.64307 0.121084,-4.73333 -0.500601,-4.51398 -1.854731,-10.389649 -2.446799,-10.616846 -0.456667,-0.175238 -3.967255,3.115426 -3.967255,3.718726 0,0.45115 -1.155259,1.00851 -1.656819,0.79933 -0.560658,-0.23382 -1.806402,-2.202904 -2.076449,-3.282123 -0.11823,-0.472499 -0.496893,-1.497181 -0.841472,-2.277075 -0.812565,-1.839091 -0.872568,-5.747127 -0.114411,-7.451735 0.291033,-0.654347 0.529151,-1.71356 0.529151,-2.35381 0,-1.69624 0.879468,-4.835609 1.920781,-6.856467 0.498794,-0.968 1.156388,-2.31119 1.46132,-2.984867 0.304931,-0.673677 1.057833,-1.609677 1.673115,-2.08 0.615282,-0.470323 1.657167,-1.325075 2.315301,-1.89945 0.834929,-0.728669 2.276149,-1.395232 4.768264,-2.205321 2.986179,-0.970692 3.645833,-1.304445 4.02415,-2.036029 0.261744,-0.50616 0.828637,-0.963021 1.344781,-1.083767 0.490758,-0.114809 3.844288,-0.286755 7.452288,-0.382102 7.235565,-0.19121 5.971702,-0.376182 16.320499,2.388605 7.006519,1.871862 7.634989,1.931267 18.684648,1.766173 8.71153,-0.13016 10.46699,-0.239543 12.59839,-0.784996 2.02164,-0.517366 3.35803,-0.619644 7.276458,-0.556905 4.79915,0.07684 4.80037,0.07667 6.88,-0.930714 2.62087,-1.269568 3.73441,-2.428089 4.25882,-4.430829 0.22751,-0.868889 1.02213,-2.584982 1.76583,-3.813539 1.52047,-2.51176 2.46456,-5.405677 2.76851,-8.486259 0.11287,-1.144 0.32888,-2.44 0.48002,-2.88 0.15114,-0.44 0.36338,-1.204512 0.47165,-1.698915 0.10827,-0.4944 0.76798,-1.518506 1.46601,-2.275786 1.2173,-1.320614 1.26916,-1.465046 1.26916,-3.534896 0,-2.318419 0.71763,-5.641014 1.47094,-6.810403 0.78927,-1.225219 1.50218,-0.880528 2.81283,1.36 0.66921,1.144 1.41913,2.08 1.66649,2.08 0.24736,0 0.44907,-0.036 0.44826,-0.08 -0.01,-0.533344 -1.6776,-3.962925 -2.19476,-4.513421 -0.37607,-0.400304 -0.68376,-0.880409 -0.68376,-1.066899 0,-1.702792 -6.22847,-8.555018 -9.40663,-10.348659 -0.90491,-0.510697 -2.36516,-1.545599 -3.245,-2.299781 -0.87985,-0.754182 -1.93463,-1.65924 -2.34396,-2.01124 -3.14716,-2.706342 -3.73594,-3.508259 -4.58564,-6.24562 -1.32829,-4.2791535 -1.49613,-9.2743805 -0.31162,-9.2743805 0.13455,0 0.57079,1.108578 0.96941,2.463507 1.41981,4.825926 3.0374,7.1007205 7.89806,11.1069235 2.04714,1.687273 5.56805,3.534901 5.97009,3.132859 0.30181,-0.301809 -0.62688,-2.777398 -1.52727,-4.071221 -1.36759,-1.965164 -2.31468,-3.90913 -3.1142,-6.3920685 -0.45338,-1.408 -1.11441,-3.468188 -1.46895,-4.578196 -0.46738,-1.463324 -0.56289,-2.233141 -0.34737,-2.79999996 0.16348,-0.429992 0.41482,-0.781804 0.55854,-0.781804 0.14371,0 1.10124,1.66285596 2.12783,3.69523596 3.55343,7.0348395 10.99996,16.9329905 14.26667,18.9636865 1.22703,0.762768 1.70805,1.3477 2.51801,3.061983 0.55067,1.165502 1.13298,2.119095 1.29401,2.119095 0.67168,0 3.55646,6.095194 4.3394,9.168646 0.44153,1.733245 0.8041,3.346196 0.8057,3.584336 0.002,0.238141 0.64898,1.151562 1.43862,2.029824 0.85708,0.953287 1.57365,2.132922 1.778,2.927015 0.95488,3.710617 1.4173,4.268233 5.07554,6.120409 4.20301,2.127988 5.29046,4.472628 3.98391,8.589642 -0.53833,1.69633 -1.37386,2.869763 -2.51315,3.52951 -0.42555,0.246432 -2.74059,0.370618 -6.90892,0.370618 -6.75603,0 -7.09011,0.07568 -7.47408,1.693126 -0.18617,0.784269 -0.71132,2.542372 -4.0171,13.448576 -1.18072,3.89536 -2.33117,5.402416 -5.17603,6.78049 -2.61137,1.264963 -3.31323,1.897257 -5.97248,5.380495 -3.60842,4.726525 -4.87994,6.70527 -5.07293,7.894522 -0.0969,0.597021 -0.45468,1.384471 -0.79511,1.749871 -0.87245,0.93648 -5.85425,3.36595 -7.88542,3.8455 -2.09531,0.49468 -2.27394,0.87027 -2.52535,5.30974 -0.12722,2.2465 -0.0246,4.18486 0.33881,6.40008 0.28671,1.74768 0.80702,4.98683 1.15625,7.19811 0.34924,2.21129 1.19292,5.81129 1.87487,8 0.68193,2.18872 1.63053,5.99549 2.10798,8.45949 0.47745,2.464 1.31902,6.352 1.87016,8.64 l 1.00207,4.16 2.01864,1.94914 c 1.11025,1.07203 2.01864,2.17523 2.01864,2.45156 0,0.62795 -1.70965,2.09431 -2.74466,2.35408 -1.58718,0.39836 -3.97979,-0.87545 -5.09534,-2.71271 -0.352,-0.57973 -1.23405,-1.81029 -1.96012,-2.73457 -1.85307,-2.35898 -2.08907,-2.87745 -2.70719,-5.9475 -0.3012,-1.496 -0.85245,-4.16 -1.225,-5.92 -0.37255,-1.76 -0.82738,-3.92 -1.01074,-4.8 -1.106518,-5.31066 -2.862698,-10.56 -3.532858,-10.56 -0.54583,0 -3.70923,7.77185 -6.25203,15.36 -1.68797,5.03718 -1.82477,5.6651 -1.8475,8.48 -0.0135,1.672 0.0898,3.70738 0.22951,4.52307 0.30225,1.76429 -0.0763,2.29416 -2.06438,2.88981 -2.04045,0.61133 -2.80656,0.0133 -3.78969,-2.95827 -0.44,-1.32993 -1.04482,-2.78825 -1.34403,-3.24072 -0.68762,-1.03976 -0.33774,-2.51761 1.1965,-5.05389 0.74212,-1.2268 1.40018,-3.11723 2.17217,-6.24 0.60914,-2.464 1.70706,-6.78318 2.43982,-9.59818 1.26845,-4.87285 1.33839,-5.38668 1.45905,-10.72 0.10321,-4.5617 0.25406,-6.01773 0.81243,-7.84182 0.37714,-1.232 0.75896,-2.78 0.84849,-3.44 0.15085,-1.11196 0.1037,-1.2 -0.64267,-1.2 -0.443,0 -1.93412,0.22074 -3.31361,0.49053 -6.16555,1.20583 -7.85147,1.41801 -11.308147,1.4232 -4.099072,0.006 -6.197382,-0.34387 -12.413149,-2.07059 -2.339235,-0.64984 -4.460416,-1.10198 -4.713744,-1.00478 -0.600016,0.23025 -4.105856,4.9801 -6.052342,8.19996 -2.925501,4.83932 -4.166951,9.72181 -3.946631,15.52168 0.203904,5.36776 1.822202,9.65634 7.036768,18.64786 1.457005,2.51233 3.549098,5.70344 4.649098,7.09136 1.68687,2.12841 2,2.72062 2,3.78254 0,1.37126 -0.732992,2.32133 -1.785197,2.31389 -0.338141,-0.002 -1.478803,-0.26139 -2.534803,-0.57555 -1.623408,-0.48297 -2.003942,-0.74182 -2.463411,-1.67565 -0.298877,-0.60745 -1.062867,-2.17565 -1.697757,-3.48489 -0.634893,-1.30924 -2.203037,-3.90124 -3.484771,-5.76 -1.281731,-1.85876 -3.137085,-4.75458 -4.123005,-6.43515 -2.727997,-4.65009 -7.911056,-15.47492 -7.911056,-16.52227 0,-0.50815 0.495235,-1.69241 1.100803,-2.63234 0.60544,-0.93974 1.414544,-2.73489 1.79801,-3.98921 1.462163,-4.78279 1.855411,-6.44823 1.586729,-6.71994 -0.98222,-0.99328 -7.467104,6.50663 -8.768108,10.14052 -2.335882,6.52446 -2.854317,9.79118 -2.878663,18.13883 -0.02499,8.56501 0.742723,13.59141 2.793258,18.28826 0.457721,1.04843 0.459734,1.21001 0.01962,1.57528 -0.269738,0.22386 -1.25336,0.47029 -2.185831,0.54762 -1.517499,0.12584 -1.801532,0.0445 -2.706836,-0.77528 z"
       id="path1384"
       inkscape:connector-curvature="0" />
  </g>
</svg>
