<?xml version="1.0" encoding="UTF-8" standalone="no"?>
<!-- Created with Inkscape (http://www.inkscape.org/) -->

<svg
   xmlns:dc="http://purl.org/dc/elements/1.1/"
   xmlns:cc="http://creativecommons.org/ns#"
   xmlns:rdf="http://www.w3.org/1999/02/22-rdf-syntax-ns#"
   xmlns:svg="http://www.w3.org/2000/svg"
   xmlns="http://www.w3.org/2000/svg"
   xmlns:sodipodi="http://sodipodi.sourceforge.net/DTD/sodipodi-0.dtd"
   xmlns:inkscape="http://www.inkscape.org/namespaces/inkscape"
   version="1.1"
   id="svg1967"
   width="163.84"
   height="163.84"
   viewBox="0 0 163.84 163.84"
   sodipodi:docname="girafe.svg"
   inkscape:version="0.92.3 (2405546, 2018-03-11)">
  <metadata
     id="metadata1973">
    <rdf:RDF>
      <cc:Work
         rdf:about="">
        <dc:format>image/svg+xml</dc:format>
        <dc:type
           rdf:resource="http://purl.org/dc/dcmitype/StillImage" />
        <dc:title />
      </cc:Work>
    </rdf:RDF>
  </metadata>
  <defs
     id="defs1971" />
  <sodipodi:namedview
     pagecolor="#ffffff"
     bordercolor="#666666"
     borderopacity="1"
     objecttolerance="10"
     gridtolerance="10"
     guidetolerance="10"
     inkscape:pageopacity="0"
     inkscape:pageshadow="2"
     inkscape:window-width="2695"
     inkscape:window-height="2054"
     id="namedview1969"
     showgrid="false"
     inkscape:zoom="5.7617189"
     inkscape:cx="56.401457"
     inkscape:cy="89.482238"
     inkscape:window-x="1133"
     inkscape:window-y="0"
     inkscape:window-maximized="0"
     inkscape:current-layer="svg1967" />
  <g
     id="g2520"
     transform="translate(16.141017,-1.0413559)">
    <path
       style="fill:#000006;fill-opacity:1;stroke:none;stroke-width:0.31999999;stroke-opacity:1"
       d="m 59.296272,156.46936 c -1.296518,-0.56352 -1.3116,-1.18491 -0.07312,-3.01264 1.013398,-1.49557 1.743558,-3.65668 1.47336,-4.3608 -0.08937,-0.23289 0.04358,-2.2698 0.29544,-4.52646 0.736266,-6.59692 0.458806,-14.95796 -0.634739,-19.12745 -0.274714,-1.04744 -0.644522,-4.44518 -0.821795,-7.55055 -0.444564,-7.7876 -0.717716,-9.54015 -2.522388,-16.18367 -1.111945,-4.0934 -2.003404,-6.634226 -3.031385,-8.639999 -0.800922,-1.562742 -1.663987,-3.70535 -1.91792,-4.76135 -0.253933,-1.056 -0.692493,-2.455376 -0.974576,-3.109722 -0.755415,-1.752339 -0.638131,-3.028492 0.607123,-6.606016 0.616,-1.769721 1.12,-3.437123 1.12,-3.705334 0,-0.268211 -0.550861,-1.390192 -1.224131,-2.493293 -4.809367,-7.879734 -6.459514,-11.110118 -8.053421,-15.765635 -0.903853,-2.64 -2.286733,-7.32 -3.073062,-10.4 -2.267088,-8.880006 -5.664932,-18.418065 -6.932506,-19.460179 -0.432637,-0.355684 -1.07777,-0.196049 -4.202966,1.04 -2.030538,0.803098 -3.845629,1.460179 -4.033536,1.460179 -0.777639,0 -3.487789,1.633204 -3.6717,2.212657 -0.252204,0.794626 -2.600547,1.708527 -4.037856,1.571407 -1.001561,-0.09555 -1.098796,-0.199686 -1.188262,-1.2726 -0.133811,-1.604693 0.490781,-2.939911 3.08048,-6.585285 3.789597,-5.334397 4.318659,-7.132222 2.85696,-9.708301 -0.875971,-1.543801 -0.559773,-1.885486 1.751782,-1.892978 1.326295,-0.0043 1.566077,-0.112871 1.954298,-0.8849 0.243386,-0.484 0.535936,-1.370276 0.650118,-1.969501 0.265904,-1.3954795 0.737255,-1.9504993 1.656455,-1.9504993 0.403859,0 1.406163,-0.288 2.227347,-0.64 2.411546,-1.0337091 2.592589,-0.7978026 1.28,1.6678883 -1.350208,2.536359 -0.916038,3.517041 1.603542,3.622004 1.643696,0.06847 2.385933,0.638474 5.820848,4.470108 4.189764,4.67367 4.89754,5.776287 8.832596,13.76 1.127721,2.288 2.58952,5.168 3.248441,6.4 0.658919,1.232 1.621139,3.032 2.138269,4 2.761523,5.169242 5.153677,8.42257 7.056787,9.597232 0.934733,0.57695 2.059517,1.318554 2.499517,1.64801 0.44,0.329452 1.532768,1.030684 2.428374,1.558294 0.895607,0.527606 3.343607,2.705206 5.44,4.83911 3.550505,3.614029 4.030845,3.984464 7.011625,5.407332 3.21771,1.535964 7.666533,2.833923 14.240003,4.154566 1.98239,0.398272 3.9504,1.014378 4.8,1.502688 1.68224,0.96688 5.901096,5.173264 7.866976,7.843722 1.9655,2.669939 2.1752,3.964838 1.98393,12.25064 -0.13188,5.712796 -0.0586,7.555481 0.4173,10.487375 0.5181,3.19209 0.67752,3.65051 1.55455,4.47016 1.07258,1.00242 1.18351,1.59682 0.57021,3.05544 l -0.40704,0.96805 -1.10773,-0.90409 c -1.01475,-0.8282 -1.12409,-1.08765 -1.30273,-3.0913 -0.10726,-1.20298 -0.44676,-3.98723 -0.75444,-6.187229 -0.30768,-2.2 -0.62711,-4.612 -0.70983,-5.36 -0.35897,-3.245763 -1.54405,-0.04768 -1.51189,4.08 0.0269,3.454929 0.89695,7.657199 2.05381,9.919999 0.49489,0.968 1.77772,2.82817 2.85073,4.13371 1.073,1.30553 2.03038,2.69031 2.1275,3.07727 0.0971,0.38697 -0.20449,2.29728 -0.67024,4.24514 l -0.84682,3.54157 0.51035,9.06116 c 0.32815,5.82626 0.7044,9.84518 1.05391,11.25727 l 0.54356,2.19612 -1.0284,1.85643 c -0.86071,1.55374 -1.01578,2.14598 -0.95105,3.63219 0.11114,2.55181 -0.34643,2.9194 -3.51636,2.82487 -3.20958,-0.0957 -3.71002,-0.51856 -2.39541,-2.02401 0.51952,-0.59495 1.32361,-1.83293 1.78685,-2.75108 0.79267,-1.57107 0.84226,-1.93899 0.84226,-6.2484 0,-2.51846 -0.1429,-5.72725 -0.31755,-7.13063 -0.17465,-1.40339 -0.53313,-4.6046 -0.79662,-7.11381 -0.46048,-4.38508 -1.07083,-6.7978 -1.71964,-6.7978 -0.35735,0 -2.00328,3.85163 -2.73494,6.4 -1.152266,4.01335 -2.502466,11.85431 -2.706576,15.71782 -0.21331,4.03748 -0.21342,4.03794 -1.39447,5.55386 -0.81578,1.04709 -1.24252,1.97576 -1.37956,3.00219 -0.28097,2.10443 -0.35678,2.25868 -1.28327,2.61093 -1.17034,0.44496 -3.76064,0.39154 -4.42079,-0.0912 -0.51519,-0.37672 -0.44961,-0.63043 0.89884,-3.47703 0.80002,-1.68885 1.45458,-3.24259 1.45458,-3.45274 0,-0.21014 0.56469,-2.06549 1.25487,-4.12297 1.44214,-4.29919 2.0193,-6.92785 2.75352,-12.54089 0.57714,-4.41211 0.4258,-10.51992 -0.32509,-13.12 -0.22872,-0.792 -0.78938,-3.42153 -1.24591,-5.8434 -0.84471,-4.48113 -1.45069,-6.07019 -3.4461,-9.0366 -0.59195,-0.88 -1.65115,-2.85868 -2.35378,-4.397052 -0.70263,-1.538381 -1.42151,-2.796557 -1.59751,-2.795945 -0.176,6.4e-4 -1.13973,0.416876 -2.14164,0.925043 -3.402633,1.725821 -7.822473,1.997011 -13.07536,0.802269 -2.1148,-0.481002 -2.204045,-0.475082 -3.714928,0.246422 l -1.548074,0.739294 -0.004,5.599999 c -0.0022,3.08 0.09157,8.09039 0.208307,11.1342 0.165622,4.31816 0.109949,5.97054 -0.25337,7.52 -0.37727,1.60895 -0.434041,3.95941 -0.299152,12.3858 0.09157,5.72 0.182,10.8623 0.20096,11.42733 0.01898,0.56503 -0.353808,1.89253 -0.828374,2.95 -0.614941,1.37027 -0.800038,2.17839 -0.64424,2.81268 0.551306,2.24448 0.541197,2.49357 -0.130278,3.20999 -0.536631,0.57255 -1.016324,0.71743 -2.342365,0.70748 -0.917098,-0.007 -2.135488,-0.21594 -2.707488,-0.46456 z"
       id="path2528"
       inkscape:connector-curvature="0" />
  </g>
</svg>
