<?xml version="1.0" encoding="UTF-8" standalone="no"?>
<!-- Created with Inkscape (http://www.inkscape.org/) -->

<svg
   xmlns:dc="http://purl.org/dc/elements/1.1/"
   xmlns:cc="http://creativecommons.org/ns#"
   xmlns:rdf="http://www.w3.org/1999/02/22-rdf-syntax-ns#"
   xmlns:svg="http://www.w3.org/2000/svg"
   xmlns="http://www.w3.org/2000/svg"
   xmlns:sodipodi="http://sodipodi.sourceforge.net/DTD/sodipodi-0.dtd"
   xmlns:inkscape="http://www.inkscape.org/namespaces/inkscape"
   version="1.1"
   id="svg2538"
   width="341.33334"
   height="341.33334"
   viewBox="0 0 341.33334 341.33334"
   sodipodi:docname="lion.svg"
   inkscape:version="0.92.3 (2405546, 2018-03-11)">
  <metadata
     id="metadata2544">
    <rdf:RDF>
      <cc:Work
         rdf:about="">
        <dc:format>image/svg+xml</dc:format>
        <dc:type
           rdf:resource="http://purl.org/dc/dcmitype/StillImage" />
        <dc:title></dc:title>
      </cc:Work>
    </rdf:RDF>
  </metadata>
  <defs
     id="defs2542" />
  <sodipodi:namedview
     pagecolor="#ffffff"
     bordercolor="#666666"
     borderopacity="1"
     objecttolerance="10"
     gridtolerance="10"
     guidetolerance="10"
     inkscape:pageopacity="0"
     inkscape:pageshadow="2"
     inkscape:window-width="2695"
     inkscape:window-height="2054"
     id="namedview2540"
     showgrid="false"
     inkscape:zoom="2.7656249"
     inkscape:cx="270.46135"
     inkscape:cy="164.56693"
     inkscape:window-x="1133"
     inkscape:window-y="0"
     inkscape:window-maximized="0"
     inkscape:current-layer="g3091" />
  <g
     id="g3091"
     transform="translate(0.36158155)">
    <path
       style="fill:#00000a;stroke-width:0.64554358;fill-opacity:1;stroke:none;stroke-opacity:1"
       d="m 90.392848,282.27179 c -3.591682,-0.20321 -6.687825,-0.53007 -6.880319,-0.72636 -0.1925,-0.19629 -1.103258,-2.09484 -2.023915,-4.21899 -0.920652,-2.12417 -2.939978,-5.1765 -4.487391,-6.78296 -3.246842,-3.37076 -6.878958,-10.84569 -8.610635,-17.72078 -1.175124,-4.66548 -1.168705,-4.96379 0.285569,-13.27262 0.540268,-3.08675 0.0065,-3.44551 -2.131861,-1.43183 -1.783004,1.67936 -4.035078,6.21171 -5.833771,11.74062 -1.085405,3.33636 -1.358247,5.52308 -1.212779,9.71988 l 0.187695,5.41505 2.698747,0.46407 c 1.484312,0.25523 3.280207,0.77867 3.99088,1.16319 1.461182,0.79058 2.890209,5.28396 2.289243,7.1982 -0.548079,1.74581 -2.379049,2.07245 -10.172938,1.8148 -6.045794,-0.19985 -6.896815,-0.38004 -8.3586,-1.76978 -2.370248,-2.25343 -2.956403,-6.33602 -3.132716,-21.81948 l -0.155213,-13.63061 3.387385,-5.84169 c 4.206623,-7.2545 4.661663,-8.8828 7.527632,-26.93667 l 2.318353,-14.60422 -0.517402,-17.19273 c -0.463641,-15.40633 -0.630637,-17.21467 -1.607205,-17.40382 -2.292181,-0.44397 -3.757392,4.58405 -7.331093,25.15741 -4.693952,27.0225 -5.219425,29.49227 -7.463197,35.07766 -4.340064,10.80366 -12.57546,21.98724 -19.00473,25.80821 -2.562477,1.5229 -3.68073,1.77294 -7.80616,1.74546 -4.441482,-0.0296 -7.7043584,-0.93123 -7.7043584,-2.12897 0,-0.27097 0.938969,-2.06242 2.0865964,-3.98099 3.090735,-5.16699 4.727392,-6.13991 10.797477,-6.41859 5.876894,-0.26981 6.415779,-0.69289 10.663334,-8.37159 5.37512,-9.7171 7.324246,-19.31361 8.865826,-43.65089 1.114281,-17.59139 1.269492,-18.87422 3.02352,-24.98944 1.616274,-5.63496 3.223579,-8.91567 6.162661,-12.57873 5.87592,-7.32334 19.764565,-14.69685 37.04924,-19.66951 4.334595,-1.24703 6.639323,-1.47459 14.766697,-1.45803 l 9.63044,0.0196 8.39718,3.04349 c 6.76177,2.45074 10.0128,3.23602 16.69278,4.03208 14.03458,1.67252 37.5961,1.12387 39.63583,-0.92296 0.28752,-0.28854 0.0709,-0.98152 -0.48153,-1.53996 -1.45172,-1.46764 -1.24281,-2.20738 0.76126,-2.69567 3.73753,-0.91065 13.61022,-6.37341 20.06343,-11.1015 7.33998,-5.37779 12.20769,-8.12333 16.69278,-9.41521 3.82942,-1.10304 4.31436,-1.61753 2.95548,-3.135551 -1.07082,-1.196222 -1.06861,-1.271638 0.0473,-1.618157 13.27321,-4.121778 17.65789,-5.094945 24.44402,-5.425283 7.56799,-0.368386 8.05903,-0.621955 6.2529,-3.228866 -0.67803,-0.978639 -0.75663,-1.533239 -0.2612,-1.8428 1.05676,-0.660276 5.52174,-0.470314 9.0482,0.384948 4.25351,1.031603 5.28284,0.541417 4.82695,-2.298714 -0.20035,-1.248164 -0.0682,-2.431291 0.29721,-2.659565 0.84715,-0.529315 6.54335,5.588256 7.59633,8.158258 0.9725,2.373605 1.85222,2.440034 5.35033,0.404041 2.56057,-1.490293 10.70783,-3.014935 10.70783,-2.003797 0,0.251261 -0.72422,1.326969 -1.60937,2.390458 -2.23398,2.684071 -1.52548,3.366672 2.99823,2.888656 4.44245,-0.469418 7.34212,-1.818731 7.92955,-3.689873 0.88443,-2.817164 3.49552,0.515558 3.51273,4.483545 0.009,2.032781 0.13109,2.158893 1.77504,1.830814 4.1437,-0.826949 4.2639,-0.799834 5.22587,1.178629 1.65809,3.410227 1.61841,7.954447 -0.11739,13.438547 -0.8705,2.75032 -1.42502,5.16002 -1.23226,5.35489 0.19276,0.19488 1.12091,0.35432 2.06255,0.35432 2.38641,0 2.65045,0.49159 1.61272,3.00248 -0.88682,2.14576 -0.85434,2.24709 1.66323,5.18784 1.41225,1.64964 4.02695,5.93907 5.81043,9.53209 2.08534,4.20114 4.64897,8.12068 7.18279,10.9818 4.97093,5.61306 7.48594,9.38396 7.48594,11.22413 0,1.88372 -2.34493,4.85794 -3.83009,4.85794 -1.33444,0 -1.94818,1.23221 -1.94818,3.91134 0,2.44539 -2.26979,4.95983 -5.45726,6.04549 -2.59398,0.88349 -3.05088,1.47668 -5.1468,6.68186 -1.69991,4.22171 -3.04572,4.60919 -10.22121,2.94282 -3.3332,-0.77403 -6.48957,-1.40735 -7.01419,-1.40735 -0.52462,0 -3.93728,3.37363 -7.58369,7.49693 -7.43303,8.40519 -12.78264,12.66856 -14.51228,11.56556 -0.58551,-0.37339 -1.51973,-1.50911 -2.07602,-2.52383 -1.56725,-2.85873 -2.34795,-2.62281 -2.80324,0.8471 -0.51106,3.89479 -1.85981,6.03512 -3.0532,4.84512 -1.28616,-1.2825 -2.48294,-0.94821 -2.48294,0.69353 0,1.87833 -1.57076,7.2885 -3.28953,11.33016 l -1.30443,3.06734 -1.5244,-1.78497 c -0.83843,-0.98172 -1.67949,-1.78496 -1.86905,-1.78496 -0.18956,0 -1.53711,2.4097 -2.99456,5.35488 -1.45746,2.94519 -2.76679,5.48264 -2.90962,5.63879 -0.14283,0.15614 -1.07033,-0.69778 -2.06112,-1.8976 -2.40467,-2.91204 -3.64725,-2.35541 -4.20339,1.88296 -0.2382,1.81536 -0.6212,3.30066 -0.85112,3.30066 -0.22991,0 -1.08556,-0.634 -1.90144,-1.4089 -0.81588,-0.77489 -1.68103,-1.20909 -1.92258,-0.96491 -0.24153,0.24418 -1.08933,7.37707 -1.88401,15.85085 -0.79468,8.47376 -1.58312,16.51133 -1.75209,17.86125 -0.42459,3.39203 1.73234,5.97217 5.50093,6.58029 1.50835,0.2434 3.3888,0.87017 4.17878,1.39285 1.96051,1.29712 4.1893,5.86328 3.66974,7.51824 -0.9303,2.96325 -9.20621,4.2678 -15.75861,2.48406 -2.46863,-0.67203 -2.88949,-0.6301 -3.46218,0.34492 -2.07904,3.53958 -2.9921,4.21469 -5.67428,4.19557 -5.30987,-0.0379 -18.65864,-2.45086 -19.42578,-3.51152 -0.4051,-0.56007 -0.93442,-3.74372 -1.17628,-7.07478 -0.24186,-3.33104 -0.85411,-7.44838 -1.36055,-9.14964 -0.67956,-2.28277 -0.75966,-3.79881 -0.30574,-5.78647 0.96,-4.20378 0.75741,-9.17205 -0.59505,-14.59307 -2.09925,-8.41432 -2.70428,-12.98705 -3.14723,-23.78642 l -0.4265,-10.39823 -1.92609,0.20755 c -1.05935,0.11415 -6.11533,1.28249 -11.23553,2.59631 -9.12398,2.34117 -9.54603,2.38785 -21.18698,2.34362 -11.20095,-0.0425 -12.3,-0.16017 -19.29352,-2.06485 -11.45867,-3.12076 -20.90898,-7.23408 -32.40033,-14.10253 -2.70098,-1.61439 -5.26252,-2.93525 -5.69233,-2.93525 -0.43501,0 -1.71416,3.09351 -2.88522,6.97758 -1.15706,3.83766 -4.064874,11.65092 -6.461794,17.36279 -2.39692,5.71187 -5.552863,13.83639 -7.013198,18.05447 -2.579072,7.44948 -2.655159,7.90746 -2.655159,15.98167 v 8.31242 l 2.978684,5.97977 c 1.638274,3.28888 3.354123,6.12543 3.812993,6.30346 0.45887,0.17801 2.38877,-0.003 4.28865,-0.40133 4.195714,-0.88058 7.746694,0.0793 9.590534,2.59243 1.08158,1.47421 1.12261,1.92395 0.38233,4.19165 -1.18483,3.62955 -1.99515,3.77649 -16.347992,2.96443 z M 223.20535,266.48675 c 0.0678,-1.51722 0.112,-3.34275 0.0982,-4.05673 -0.0394,-2.03505 -4.1137,-25.82798 -4.54302,-26.53025 -0.21127,-0.3456 -0.60866,-0.0147 -0.88308,0.73523 -0.77547,2.1193 -2.05371,22.58803 -1.57253,25.18114 0.45669,2.46104 4.39473,7.42919 5.88881,7.42919 0.59774,0 0.92867,-0.90241 1.01165,-2.75858 z"
       id="path3097"
       inkscape:connector-curvature="0" />
  </g>
</svg>
