<?xml version="1.0" encoding="UTF-8" standalone="no"?>
<!-- Created with Inkscape (http://www.inkscape.org/) -->

<svg
   xmlns:osb="http://www.openswatchbook.org/uri/2009/osb"
   xmlns:dc="http://purl.org/dc/elements/1.1/"
   xmlns:cc="http://creativecommons.org/ns#"
   xmlns:rdf="http://www.w3.org/1999/02/22-rdf-syntax-ns#"
   xmlns:svg="http://www.w3.org/2000/svg"
   xmlns="http://www.w3.org/2000/svg"
   xmlns:sodipodi="http://sodipodi.sourceforge.net/DTD/sodipodi-0.dtd"
   xmlns:inkscape="http://www.inkscape.org/namespaces/inkscape"
   width="30"
   height="30"
   viewBox="0 0 7.9374995 7.9374995"
   version="1.1"
   id="svg8"
   inkscape:version="0.92.3 (2405546, 2018-03-11)"
   sodipodi:docname="cara_muy_feliz.svg">
  <defs
     id="defs2">
    <linearGradient
       id="linearGradient827"
       osb:paint="solid">
      <stop
         style="stop-color:#000000;stop-opacity:1;"
         offset="0"
         id="stop825" />
    </linearGradient>
  </defs>
  <sodipodi:namedview
     id="base"
     pagecolor="#ffffff"
     bordercolor="#666666"
     borderopacity="1.0"
     inkscape:pageopacity="0.0"
     inkscape:pageshadow="2"
     inkscape:zoom="45.254834"
     inkscape:cx="15.291473"
     inkscape:cy="15.040193"
     inkscape:document-units="mm"
     inkscape:current-layer="layer1"
     showgrid="false"
     inkscape:window-width="2493"
     inkscape:window-height="2064"
     inkscape:window-x="1345"
     inkscape:window-y="0"
     inkscape:window-maximized="0"
     units="px" />
  <metadata
     id="metadata5">
    <rdf:RDF>
      <cc:Work
         rdf:about="">
        <dc:format>image/svg+xml</dc:format>
        <dc:type
           rdf:resource="http://purl.org/dc/dcmitype/StillImage" />
        <dc:title></dc:title>
      </cc:Work>
    </rdf:RDF>
  </metadata>
  <g
     inkscape:label="Capa 1"
     inkscape:groupmode="layer"
     id="layer1"
     transform="translate(0,-289.0625)"
     style="display:inline;opacity:1">
    <path
       style="fill:none;fill-opacity:1;stroke:#000000;stroke-width:0.75223398;stroke-miterlimit:4;stroke-dasharray:none;stroke-opacity:1"
       d="m 7.561383,293.03124 a 3.5926334,3.5926325 0 0 1 -3.5926326,3.59264 3.5926334,3.5926325 0 0 1 -3.59263341,-3.59264 3.5926334,3.5926325 0 0 1 3.59263341,-3.59263 3.5926334,3.5926325 0 0 1 3.5926326,3.59263 z"
       id="path815"
       inkscape:connector-curvature="0" />
    <path
       style="opacity:1;vector-effect:none;fill:#000000;fill-opacity:1;fill-rule:evenodd;stroke:#000000;stroke-width:0.56988215;stroke-linecap:butt;stroke-linejoin:miter;stroke-miterlimit:4;stroke-dasharray:none;stroke-dashoffset:0;stroke-opacity:1"
       d="m 2.8962063,291.99338 a 0.2775844,0.34856656 0 0 1 -0.2775843,0.34857 0.2775844,0.34856656 0 0 1 -0.2775846,-0.34857 0.2775844,0.34856656 0 0 1 0.2775846,-0.34857 0.2775844,0.34856656 0 0 1 0.2775843,0.34857 z"
       id="path831"
       inkscape:connector-curvature="0" />
    <path
       style="opacity:1;vector-effect:none;fill:#000000;fill-opacity:1;fill-rule:evenodd;stroke:#000000;stroke-width:0.56988215;stroke-linecap:butt;stroke-linejoin:miter;stroke-miterlimit:4;stroke-dasharray:none;stroke-dashoffset:0;stroke-opacity:1"
       d="m 5.6517393,292.0192 a 0.27758443,0.34856656 0 0 1 -0.2775842,0.34856 0.27758443,0.34856656 0 0 1 -0.2775844,-0.34856 0.27758443,0.34856656 0 0 1 0.2775844,-0.34857 0.27758443,0.34856656 0 0 1 0.2775842,0.34857 z"
       id="path831-4"
       inkscape:connector-curvature="0" />
    <path
       style="fill:none;stroke:#000000;stroke-width:0.36500001;stroke-linecap:butt;stroke-linejoin:miter;stroke-miterlimit:4;stroke-dasharray:none;stroke-opacity:1"
       d="m 2.525944,293.77539 c 0.092475,0.68912 0.5602919,1.69736 1.5502929,1.69292 0.8599505,-0.0368 1.3942092,-0.95039 1.4924154,-1.68052 z"
       id="path1985"
       inkscape:connector-curvature="0"
       sodipodi:nodetypes="cccc" />
  </g>
  <g
     inkscape:groupmode="layer"
     id="layer2"
     inkscape:label="base"
     style="display:none;opacity:0.66399997">
    <path
       style="opacity:0.419;fill:none;fill-opacity:1;stroke:#000000;stroke-width:0.56988215;stroke-miterlimit:4;stroke-dasharray:none;stroke-opacity:1"
       d="m 2.822302,5.725322 h 2.4644082 v 0.0645 H 2.822302 Z"
       id="rect850"
       inkscape:connector-curvature="0" />
    <path
       style="display:inline;opacity:0.419;fill:none;fill-opacity:1;stroke:#000000;stroke-width:0.56988215;stroke-miterlimit:4;stroke-dasharray:none;stroke-opacity:1"
       d="m 2.8192282,5.0981862 h 2.4644081 v 0.0645 H 2.8192282 Z"
       id="rect850-8"
       inkscape:connector-curvature="0" />
  </g>
</svg>
