<?xml version="1.0" encoding="UTF-8" standalone="no"?>
<!-- Created with Inkscape (http://www.inkscape.org/) -->

<svg
   xmlns:osb="http://www.openswatchbook.org/uri/2009/osb"
   xmlns:dc="http://purl.org/dc/elements/1.1/"
   xmlns:cc="http://creativecommons.org/ns#"
   xmlns:rdf="http://www.w3.org/1999/02/22-rdf-syntax-ns#"
   xmlns:svg="http://www.w3.org/2000/svg"
   xmlns="http://www.w3.org/2000/svg"
   xmlns:sodipodi="http://sodipodi.sourceforge.net/DTD/sodipodi-0.dtd"
   xmlns:inkscape="http://www.inkscape.org/namespaces/inkscape"
   width="30"
   height="30"
   viewBox="0 0 7.9374995 7.9374995"
   version="1.1"
   id="svg8"
   inkscape:version="0.92.3 (2405546, 2018-03-11)"
   sodipodi:docname="cara_muy_triste.svg">
  <defs
     id="defs2">
    <linearGradient
       id="linearGradient827"
       osb:paint="solid">
      <stop
         style="stop-color:#000000;stop-opacity:1;"
         offset="0"
         id="stop825" />
    </linearGradient>
  </defs>
  <sodipodi:namedview
     id="base"
     pagecolor="#ffffff"
     bordercolor="#666666"
     borderopacity="1.0"
     inkscape:pageopacity="0.0"
     inkscape:pageshadow="2"
     inkscape:zoom="32"
     inkscape:cx="3.1543706"
     inkscape:cy="20.765023"
     inkscape:document-units="mm"
     inkscape:current-layer="layer1"
     showgrid="false"
     inkscape:window-width="2493"
     inkscape:window-height="2064"
     inkscape:window-x="1345"
     inkscape:window-y="0"
     inkscape:window-maximized="0"
     units="px" />
  <metadata
     id="metadata5">
    <rdf:RDF>
      <cc:Work
         rdf:about="">
        <dc:format>image/svg+xml</dc:format>
        <dc:type
           rdf:resource="http://purl.org/dc/dcmitype/StillImage" />
        <dc:title></dc:title>
      </cc:Work>
    </rdf:RDF>
  </metadata>
  <g
     inkscape:label="Capa 1"
     inkscape:groupmode="layer"
     id="layer1"
     transform="translate(0,-289.0625)"
     style="display:inline;opacity:1">
    <path
       style="fill:none;fill-opacity:1;stroke:#000000;stroke-width:0.75223398;stroke-miterlimit:4;stroke-dasharray:none;stroke-opacity:1"
       d="m 7.561383,293.03124 a 3.5926334,3.5926325 0 0 1 -3.5926326,3.59264 3.5926334,3.5926325 0 0 1 -3.59263341,-3.59264 3.5926334,3.5926325 0 0 1 3.59263341,-3.59263 3.5926334,3.5926325 0 0 1 3.5926326,3.59263 z"
       id="path815"
       inkscape:connector-curvature="0" />
    <path
       style="opacity:1;vector-effect:none;fill:#000000;fill-opacity:1;fill-rule:evenodd;stroke:#000000;stroke-width:0.56988215;stroke-linecap:butt;stroke-linejoin:miter;stroke-miterlimit:4;stroke-dasharray:none;stroke-dashoffset:0;stroke-opacity:1"
       d="m 2.8962063,291.99338 a 0.2775844,0.34856656 0 0 1 -0.2775843,0.34857 0.2775844,0.34856656 0 0 1 -0.2775846,-0.34857 0.2775844,0.34856656 0 0 1 0.2775846,-0.34857 0.2775844,0.34856656 0 0 1 0.2775843,0.34857 z"
       id="path831"
       inkscape:connector-curvature="0" />
    <path
       style="opacity:1;vector-effect:none;fill:#000000;fill-opacity:1;fill-rule:evenodd;stroke:#000000;stroke-width:0.56988215;stroke-linecap:butt;stroke-linejoin:miter;stroke-miterlimit:4;stroke-dasharray:none;stroke-dashoffset:0;stroke-opacity:1"
       d="m 5.6517393,292.0192 a 0.27758443,0.34856656 0 0 1 -0.2775842,0.34856 0.27758443,0.34856656 0 0 1 -0.2775844,-0.34856 0.27758443,0.34856656 0 0 1 0.2775844,-0.34857 0.27758443,0.34856656 0 0 1 0.2775842,0.34857 z"
       id="path831-4"
       inkscape:connector-curvature="0" />
    <path
       style="opacity:1;fill:none;stroke:#000000;stroke-width:0.565;stroke-linecap:butt;stroke-linejoin:miter;stroke-miterlimit:4;stroke-dasharray:none;stroke-opacity:1"
       d="m 2.5448211,295.04282 c 1.0158653,-0.8417 2.0501511,-0.84971 3.0249705,9e-5"
       id="path1407"
       inkscape:connector-curvature="0"
       sodipodi:nodetypes="cc" />
    <path
       style="fill:#000000;fill-opacity:1;stroke:#000000;stroke-width:0.26499999;stroke-linecap:butt;stroke-linejoin:miter;stroke-miterlimit:4;stroke-dasharray:none;stroke-opacity:1"
       d="m 5.837751,293.17637 c -0.040925,0.093 -0.054804,0.12042 -0.1286233,0.31133 -0.038321,0.0991 0.031993,0.19526 0.1373932,0.2017 0.1289928,0.008 0.1788738,-0.0902 0.1447012,-0.18416 -0.073642,-0.20255 -0.105943,-0.23605 -0.1534711,-0.32887 z"
       id="path1412"
       inkscape:connector-curvature="0"
       sodipodi:nodetypes="csssc" />
  </g>
  <g
     inkscape:groupmode="layer"
     id="layer2"
     inkscape:label="base"
     style="display:none">
    <path
       style="opacity:0.419;fill:none;fill-opacity:1;stroke:#000000;stroke-width:0.73122543;stroke-miterlimit:4;stroke-dasharray:none;stroke-opacity:1"
       d="m 2.9062515,5.5007177 h 2.303065 V 5.614349 h -2.303065 z"
       id="rect850"
       inkscape:connector-curvature="0" />
  </g>
</svg>
