<?xml version="1.0" encoding="UTF-8" standalone="no"?>
<svg
   xmlns:dc="http://purl.org/dc/elements/1.1/"
   xmlns:cc="http://creativecommons.org/ns#"
   xmlns:rdf="http://www.w3.org/1999/02/22-rdf-syntax-ns#"
   xmlns:svg="http://www.w3.org/2000/svg"
   xmlns="http://www.w3.org/2000/svg"
   xmlns:sodipodi="http://sodipodi.sourceforge.net/DTD/sodipodi-0.dtd"
   xmlns:inkscape="http://www.inkscape.org/namespaces/inkscape"
   viewBox="0 0 313.40177 635.52672"
   version="1.1"
   id="svg4"
   sodipodi:docname="ic_background.svg"
   width="313.40176"
   height="635.52673"
   inkscape:version="0.92.3 (2405546, 2018-03-11)">
  <metadata
     id="metadata10">
    <rdf:RDF>
      <cc:Work
         rdf:about="">
        <dc:format>image/svg+xml</dc:format>
        <dc:type
           rdf:resource="http://purl.org/dc/dcmitype/StillImage" />
        <dc:title></dc:title>
      </cc:Work>
    </rdf:RDF>
  </metadata>
  <defs
     id="defs8" />
  <sodipodi:namedview
     pagecolor="#ffffff"
     bordercolor="#666666"
     borderopacity="1"
     objecttolerance="10"
     gridtolerance="10"
     guidetolerance="10"
     inkscape:pageopacity="0"
     inkscape:pageshadow="2"
     inkscape:window-width="1918"
     inkscape:window-height="2054"
     id="namedview6"
     showgrid="false"
     inkscape:zoom="2.085965"
     inkscape:cx="56.408386"
     inkscape:cy="367.41362"
     inkscape:window-x="1910"
     inkscape:window-y="0"
     inkscape:window-maximized="0"
     inkscape:current-layer="svg4" />
  <path
     d="m 11.095995,159.35561 5,20 H 6.0959954 Z m 42,31 a 3,3 0 1 0 0,-6 3,3 0 0 0 0,6 z m -52.99999957,41 H 40.095995 v 4 H 0.09599543 Z m 0,-8 H 31.095995 v 4 H 0.09599543 Z m 19.99999957,-16 h 20 v 4 h -20 z m -19.99999957,8 H 40.095995 v 4 H 0.09599543 Z m 62.99999957,-25 a 3,3 0 1 0 0,-6 3,3 0 0 0 0,6 z m 10,0 a 3,3 0 1 0 0,-6 3,3 0 0 0 0,6 z m -20,10 a 3,3 0 1 0 0,-6 3,3 0 0 0 0,6 z m 10,0 a 3,3 0 1 0 0,-6 3,3 0 0 0 0,6 z m 10,0 a 3,3 0 1 0 0,-6 3,3 0 0 0 0,6 z m -30,0 a 3,3 0 1 0 0,-6 3,3 0 0 0 0,6 z m -28,-8 a 5,5 0 0 0 -9.9999996,0 z m 10,0 a 5,5 0 0 1 -10,0 z m 31,-28 a 5,5 0 0 0 -10,0 z m 10,0 a 5,5 0 0 1 -10,0 z m -3,46 a 3,3 0 1 0 0,-6 3,3 0 0 0 0,6 z m 10,0 a 3,3 0 1 0 0,-6 3,3 0 0 0 0,6 z m -52,-51 5,20 h -10 z m 43,64 v -4 h -4 v 4 h -4 v 4 h 4 v 4 h 4 v -4 h 4 v -4 z m -28,-51 h 4 v 4 h -4 z m 4,4 h 4 v 4 h -4 z m -4,4 h 4 v 4 h -4 z m 8,-8 h 4 v 4 h -4 z"
     id="path2"
     inkscape:connector-curvature="0"
     style="fill:#000000;fill-rule:evenodd" />
  <path
     id="path817"
     d="m 11.095995,159.35561 5,20 H 6.0959954 Z m 42,31 a 3,3 0 1 0 0,-6 3,3 0 0 0 0,6 z m -52.99999957,41 H 40.095995 v 4 H 0.09599543 Z m 0,-8 H 31.095995 v 4 H 0.09599543 Z m 19.99999957,-16 h 20 v 4 h -20 z m -19.99999957,8 H 40.095995 v 4 H 0.09599543 Z m 62.99999957,-25 a 3,3 0 1 0 0,-6 3,3 0 0 0 0,6 z m 10,0 a 3,3 0 1 0 0,-6 3,3 0 0 0 0,6 z m -20,10 a 3,3 0 1 0 0,-6 3,3 0 0 0 0,6 z m 10,0 a 3,3 0 1 0 0,-6 3,3 0 0 0 0,6 z m 10,0 a 3,3 0 1 0 0,-6 3,3 0 0 0 0,6 z m -30,0 a 3,3 0 1 0 0,-6 3,3 0 0 0 0,6 z m -28,-8 a 5,5 0 0 0 -9.9999996,0 z m 10,0 a 5,5 0 0 1 -10,0 z m 31,-28 a 5,5 0 0 0 -10,0 z m 10,0 a 5,5 0 0 1 -10,0 z m -3,46 a 3,3 0 1 0 0,-6 3,3 0 0 0 0,6 z m 10,0 a 3,3 0 1 0 0,-6 3,3 0 0 0 0,6 z m -52,-51 5,20 h -10 z m 43,64 v -4 h -4 v 4 h -4 v 4 h 4 v 4 h 4 v -4 h 4 v -4 z m -28,-51 h 4 v 4 h -4 z m 4,4 h 4 v 4 h -4 z m -4,4 h 4 v 4 h -4 z m 8,-8 h 4 v 4 h -4 z"
     inkscape:connector-curvature="0"
     style="fill:#000000;fill-rule:evenodd" />
  <path
     inkscape:connector-curvature="0"
     style="fill:#000000;fill-rule:evenodd"
     id="path817-9"
     d="m 91.38657,159.28875 5,20 h -10 z m 42.00001,31 a 3,3 0 1 0 0,-6 3,3 0 0 0 0,6 z m -53.00001,41 h 40 v 4 h -40 z m 0,-8 h 31 v 4 h -31 z m 20,-16 h 20 v 4 h -20 z m -20,8 h 40 v 4 h -40 z m 63.00001,-25 a 3,3 0 1 0 0,-6 3,3 0 0 0 0,6 z m 10,0 a 3,3 0 1 0 0,-6 3,3 0 0 0 0,6 z m -20,10 a 3,3 0 1 0 0,-6 3,3 0 0 0 0,6 z m 10,0 a 3,3 0 1 0 0,-6 3,3 0 0 0 0,6 z m 10,0 a 3,3 0 1 0 0,-6 3,3 0 0 0 0,6 z m -30.00001,0 a 3,3 0 1 0 0,-6 3,3 0 0 0 0,6 z m -28,-8 a 5,5 0 0 0 -10,0 z m 10,0 a 5,5 0 0 1 -10,0 z m 31.00001,-28 a 5.000005,5.000005 0 0 0 -10.00001,0 z m 10,0 a 5,5 0 0 1 -10,0 z m -3,46 a 3,3 0 1 0 0,-6 3,3 0 0 0 0,6 z m 10,0 a 3,3 0 1 0 0,-6 3,3 0 0 0 0,6 z m -52.00001,-51 5,20 h -10 z m 43.00001,64 v -4 h -4 v 4 h -4 v 4 h 4 v 4 h 4 v -4 h 4 v -4 z m -28.00001,-51 h 4 v 4 h -4 z m 4,4 h 4 v 4 h -4 z m -4,4 h 4 v 4 h -4 z m 8,-8 h 4 v 4 h -4 z" />
  <path
     inkscape:connector-curvature="0"
     style="fill:#000000;fill-rule:evenodd"
     id="path817-99"
     d="m 11.40108,239.4912 5,20.00001 H 6.4010806 Z m 41.999996,31.00001 a 3,3 0 1 0 0,-6 3,3 0 0 0 0,6 z m -52.99999541,41 H 40.40108 v 4 H 0.40108059 Z m 0,-8 H 31.40108 v 4 H 0.40108059 Z m 19.99999941,-16 h 20 v 4 h -20 z m -19.99999941,8 H 40.40108 v 4 H 0.40108059 Z m 62.99999541,-25 a 3,3 0 1 0 0,-6 3,3 0 0 0 0,6 z m 10,0 a 3,3 0 1 0 0,-6 3,3 0 0 0 0,6 z m -20,10 a 3,3 0 1 0 0,-6 3,3 0 0 0 0,6 z m 10,0 a 3,3 0 1 0 0,-6 3,3 0 0 0 0,6 z m 10,0 a 3,3 0 1 0 0,-6 3,3 0 0 0 0,6 z m -29.999996,0 a 3,3 0 1 0 0,-6 3,3 0 0 0 0,6 z m -28,-8 a 5,5 0 0 0 -9.9999994,0 z m 10,0 a 5,5 0 0 1 -10,0 z M 56.401076,244.4912 a 5,5 0 0 0 -10,0 z m 10,0 a 5,5 0 0 1 -10,0 z m -3,46.00001 a 3,3 0 1 0 0,-6 3,3 0 0 0 0,6 z m 10,0 a 3,3 0 1 0 0,-6 3,3 0 0 0 0,6 z M 21.40108,239.4912 l 5,20.00001 h -10 z m 42.999996,64.00001 v -4 h -4 v 4 h -4 v 4 h 4 v 4 h 4 v -4 h 4 v -4 z M 36.40108,252.4912 h 4 v 4.00001 h -4 z m 4,4.00001 h 4 v 4 h -4 z m -4,4 h 4 v 4 h -4 z m 8,-8.00001 h 3.999996 v 4.00001 H 44.40108 Z" />
  <path
     inkscape:connector-curvature="0"
     style="fill:#000000;fill-rule:evenodd"
     id="path817-3"
     d="m 91.570571,239.6607 5,20 h -10 z m 41.999999,31 a 3,3 0 1 0 0,-6 3,3 0 0 0 0,6 z m -52.999999,41 h 39.999999 v 4 H 80.570571 Z m 0,-8 h 30.999999 v 4 H 80.570571 Z m 20.000009,-16 h 19.99999 v 4 h -19.99999 z m -20.000009,8 h 39.999999 v 4 H 80.570571 Z m 62.999999,-25 a 3,3 0 1 0 0,-6 3,3 0 0 0 0,6 z m 10,0 a 3,3 0 1 0 0,-6 3,3 0 0 0 0,6 z m -20,10 a 3.000005,3.000005 0 1 0 0,-6 3.000005,3.000005 0 0 0 0,6 z m 10,0 a 3.000005,3.000005 0 1 0 0,-6 3.000005,3.000005 0 0 0 0,6 z m 10,0 a 3.000005,3.000005 0 1 0 0,-6 3.000005,3.000005 0 0 0 0,6 z m -30,0 a 3.000005,3.000005 0 1 0 0,-6 3.000005,3.000005 0 0 0 0,6 z m -27.999999,-8 a 5,5 0 0 0 -10,0 z m 9.999999,0 a 5,5 0 0 1 -9.999999,0 z m 31,-28 a 5,5 0 0 0 -10,0 z m 10,0 a 5,5 0 0 1 -10,0 z m -3,46 a 3,3 0 1 0 0,-6 3,3 0 0 0 0,6 z m 10,0 a 3,3 0 1 0 0,-6 3,3 0 0 0 0,6 z m -51.99999,-51 4.99999,20 h -9.999999 z m 42.99999,64 v -4 h -4 v 4 h -4 v 4 h 4 v 4 h 4 v -4 h 4 v -4 z m -28,-51 h 4 v 4 h -4 z m 4,4 h 4 v 4 h -4 z m -4,4 h 4 v 4 h -4 z m 8,-8 h 4 v 4 h -4 z" />
  <path
     d="m 11,0.066865 5,20 H 6 Z m 42,31 a 3,3 0 1 0 0,-6 3,3 0 0 0 0,6 z M 0,72.066872 h 40 v 4 H 0 Z m 0,-8 h 31 v 4 H 0 Z M 20,48.066865 h 20 v 4 H 20 Z m -20,8 h 40 v 4.000007 H 0 Z m 62.999999,-25 a 3,3 0 1 0 0,-6 3,3 0 0 0 0,6 z m 10,0 a 3,3 0 1 0 0,-6 3,3 0 0 0 0,6 z M 53,41.066865 a 3,3 0 1 0 0,-6 3,3 0 0 0 0,6 z m 9.999999,0 a 3,3 0 1 0 0,-6 3,3 0 0 0 0,6 z m 10,0 a 3,3 0 1 0 0,-6 3,3 0 0 0 0,6 z m -29.999999,0 a 3,3 0 1 0 0,-6 3,3 0 0 0 0,6 z m -28,-8 a 5.0000002,5.0000002 0 0 0 -10,0 z m 10,0 a 5,5 0 0 1 -10,0 z m 31,-28 a 5,5 0 0 0 -10,0 z m 9.999999,0 a 5,5 0 0 1 -9.999999,0 z m -3,46 a 3,3 0 1 0 0,-6 3,3 0 0 0 0,6 z m 10,0 a 3,3 0 1 0 0,-6 3,3 0 0 0 0,6 z M 21,0.066865 l 5,20 H 16 Z m 42.999999,64.000007 v -4 h -4 v 4 H 56 v 4 h 3.999999 v 4 h 4 v -4 h 4 v -4 z M 36,13.066865 h 4 v 4 h -4 z m 4,4 h 4 v 4 h -4 z m -4,4 h 4 v 4 h -4 z m 8,-8 h 4 v 4 h -4 z"
     id="path2-9"
     inkscape:connector-curvature="0"
     style="fill:#000000;fill-rule:evenodd" />
  <path
     id="path817-8"
     d="m 11,0.066865 5,20 H 6 Z m 42,31 a 3,3 0 1 0 0,-6 3,3 0 0 0 0,6 z M 0,72.066872 h 40 v 4 H 0 Z m 0,-8 h 31 v 4 H 0 Z M 20,48.066865 h 20 v 4 H 20 Z m -20,8 h 40 v 4.000007 H 0 Z m 62.999999,-25 a 3,3 0 1 0 0,-6 3,3 0 0 0 0,6 z m 10,0 a 3,3 0 1 0 0,-6 3,3 0 0 0 0,6 z M 53,41.066865 a 3,3 0 1 0 0,-6 3,3 0 0 0 0,6 z m 9.999999,0 a 3,3 0 1 0 0,-6 3,3 0 0 0 0,6 z m 10,0 a 3,3 0 1 0 0,-6 3,3 0 0 0 0,6 z m -29.999999,0 a 3,3 0 1 0 0,-6 3,3 0 0 0 0,6 z m -28,-8 a 5.0000002,5.0000002 0 0 0 -10,0 z m 10,0 a 5,5 0 0 1 -10,0 z m 31,-28 a 5,5 0 0 0 -10,0 z m 9.999999,0 a 5,5 0 0 1 -9.999999,0 z m -3,46 a 3,3 0 1 0 0,-6 3,3 0 0 0 0,6 z m 10,0 a 3,3 0 1 0 0,-6 3,3 0 0 0 0,6 z M 21,0.066865 l 5,20 H 16 Z m 42.999999,64.000007 v -4 h -4 v 4 H 56 v 4 h 3.999999 v 4 h 4 v -4 h 4 v -4 z M 36,13.066865 h 4 v 4 h -4 z m 4,4 h 4 v 4 h -4 z m -4,4 h 4 v 4 h -4 z m 8,-8 h 4 v 4 h -4 z"
     inkscape:connector-curvature="0"
     style="fill:#000000;fill-rule:evenodd" />
  <path
     inkscape:connector-curvature="0"
     style="fill:#000000;fill-rule:evenodd"
     id="path817-9-5"
     d="m 91.290575,5e-6 5,20 h -10 z m 42.000005,31 a 3,3 0 1 0 0,-6 3,3 0 0 0 0,6 z M 80.290575,72.000011 h 39.999995 v 4 H 80.290575 Z m 0,-8 h 30.999995 v 4 H 80.290575 Z M 100.29057,48.000005 h 20 v 4 h -20 z m -19.999995,8 h 39.999995 v 4.000006 H 80.290575 Z m 63.000005,-25 a 3,3 0 1 0 0,-6 3,3 0 0 0 0,6 z m 10,0 a 3,3 0 1 0 0,-6 3,3 0 0 0 0,6 z m -20,10 a 3,3 0 1 0 0,-6 3,3 0 0 0 0,6 z m 10,0 a 3,3 0 1 0 0,-6 3,3 0 0 0 0,6 z m 10,0 a 3,3 0 1 0 0,-6 3,3 0 0 0 0,6 z m -30.00001,0 a 3,3 0 1 0 0,-6 3,3 0 0 0 0,6 z m -27.999995,-8 a 5,5 0 0 0 -10,0 z m 9.999995,0 a 5,5 0 0 1 -9.999995,0 z m 31.00001,-28 a 5.000005,5.000005 0 0 0 -10.00001,0 z m 10,0 a 5,5 0 0 1 -10,0 z m -3,46 a 3,3 0 1 0 0,-6 3,3 0 0 0 0,6 z m 10,0 a 3,3 0 1 0 0,-6 3,3 0 0 0 0,6 z m -52.00001,-51 5,20 h -9.999995 z m 43.00001,64.000006 v -4 h -4 v 4 h -4 v 4 h 4 v 4 h 4 v -4 h 4 v -4 z M 116.29057,13.000005 h 4 v 4 h -4 z m 4,4 h 4 v 4 h -4 z m -4,4 h 4 v 4 h -4 z m 8,-8 h 4 v 4 h -4 z" />
  <path
     inkscape:connector-curvature="0"
     style="fill:#000000;fill-rule:evenodd"
     id="path817-99-8"
     d="m 11.305085,80.202465 5,20.000005 h -10 z m 41.999996,31.000005 a 3,3 0 1 0 0,-6 3,3 0 0 0 0,6 z m -52.999996,41 h 40 v 4 h -40 z m 0,-8 h 31 v 4 h -31 z m 20,-16 h 20 v 4 h -20 z m -20,8 h 40 v 4 h -40 z m 62.999995,-25 a 3,3 0 1 0 0,-6 3,3 0 0 0 0,6 z m 10,0 a 3,3 0 1 0 0,-6 3,3 0 0 0 0,6 z m -19.999999,10 a 3.0000002,3.0000002 0 1 0 0,-6 3.0000002,3.0000002 0 0 0 0,6 z m 9.999999,0 a 3.0000002,3.0000002 0 1 0 0,-6 3.0000002,3.0000002 0 0 0 0,6 z m 10,0 a 3.0000002,3.0000002 0 1 0 0,-6 3.0000002,3.0000002 0 0 0 0,6 z m -29.999995,0 a 3.0000002,3.0000002 0 1 0 0,-6 3.0000002,3.0000002 0 0 0 0,6 z m -28,-8 a 5.0000002,5.0000002 0 0 0 -10,0 z m 10,0 a 5,5 0 0 1 -10,0 z M 56.305081,85.202465 a 5,5 0 0 0 -10,0 z m 9.999999,0 a 5,5 0 0 1 -9.999999,0 z m -3,46.000005 a 3,3 0 1 0 0,-6 3,3 0 0 0 0,6 z m 10,0 a 3,3 0 1 0 0,-6 3,3 0 0 0 0,6 z m -51.999995,-51.000005 5,20.000005 h -10 z M 64.30508,144.20247 v -4 h -4 v 4 h -3.999999 v 4 h 3.999999 v 4 h 4 v -4 h 4 v -4 z M 36.305085,93.202466 h 4 v 4 h -4 z m 4,4 h 4 v 4.000004 h -4 z m -4,4.000004 h 4 v 4 h -4 z m 8,-8.000004 h 3.999996 v 4 h -3.999996 z" />
  <path
     inkscape:connector-curvature="0"
     style="fill:#000000;fill-rule:evenodd"
     id="path817-3-3"
     d="m 91.474576,80.371957 5,20.000003 h -10 z m 41.999994,31.000003 a 3,3 0 1 0 0,-6 3,3 0 0 0 0,6 z m -52.999994,41.00001 h 39.999994 v 4 H 80.474576 Z m 0,-8 h 30.999994 v 4 H 80.474576 Z m 20.000004,-16 h 19.99999 v 4 h -19.99999 z m -20.000004,8 h 39.999994 v 4 H 80.474576 Z m 62.999994,-25.00001 a 3,3 0 1 0 0,-6 3,3 0 0 0 0,6 z m 10,0 a 3,3 0 1 0 0,-6 3,3 0 0 0 0,6 z m -20,10.00001 a 3.0000051,3.0000051 0 1 0 0,-6.00001 3.0000051,3.0000051 0 0 0 0,6.00001 z m 10,0 a 3.0000051,3.0000051 0 1 0 0,-6.00001 3.0000051,3.0000051 0 0 0 0,6.00001 z m 10,0 a 3.0000051,3.0000051 0 1 0 0,-6.00001 3.0000051,3.0000051 0 0 0 0,6.00001 z m -30,0 a 3.0000051,3.0000051 0 1 0 0,-6.00001 3.0000051,3.0000051 0 0 0 0,6.00001 z m -27.999994,-8.00001 a 5,5 0 0 0 -10,0 z m 9.999994,0 a 5,5 0 0 1 -9.999994,0 z m 31,-28.000003 a 5,5 0 0 0 -10,0 z m 10,0 a 5,5 0 0 1 -10,0 z m -3,46.000013 a 3,3 0 1 0 0,-6 3,3 0 0 0 0,6 z m 10,0 a 3,3 0 1 0 0,-6 3,3 0 0 0 0,6 z m -51.99999,-51.000013 4.99999,20.000003 h -9.999994 z m 42.99999,64.000013 v -4 h -4 v 4 h -4 v 4 h 4 v 4 h 4 v -4 h 4 v -4 z m -28,-51.000013 h 4 v 4 h -4 z m 4,4 h 4 v 4.000003 h -4 z m -4,4.000003 h 4 v 4 h -4 z m 8,-8.000003 h 4 v 4 h -4 z" />
  <path
     d="m 167.61299,159.35636 5,20 h -10 z m 42,31 a 3,3 0 1 0 0,-6 3,3 0 0 0 0,6 z m -53,41 h 40 v 4 h -40 z m 0,-8 h 31 v 4 h -31 z m 20,-16 h 20 v 4 h -20 z m -20,8 h 40 v 4 h -40 z m 63,-25 a 3,3 0 1 0 0,-6 3,3 0 0 0 0,6 z m 10,0 a 3,3 0 1 0 0,-6 3,3 0 0 0 0,6 z m -20,10 a 3,3 0 1 0 0,-6 3,3 0 0 0 0,6 z m 10,0 a 3,3 0 1 0 0,-6 3,3 0 0 0 0,6 z m 10,0 a 3,3 0 1 0 0,-6 3,3 0 0 0 0,6 z m -30,0 a 3,3 0 1 0 0,-6 3,3 0 0 0 0,6 z m -28,-8 a 5,5 0 0 0 -10,0 z m 10,0 a 5,5 0 0 1 -10,0 z m 31,-28 a 5,5 0 0 0 -10,0 z m 10,0 a 5,5 0 0 1 -10,0 z m -3,46 a 3,3 0 1 0 0,-6 3,3 0 0 0 0,6 z m 10,0 a 3,3 0 1 0 0,-6 3,3 0 0 0 0,6 z m -52,-51 5,20 h -10 z m 43,64 v -4 h -4 v 4 h -4 v 4 h 4 v 4 h 4 v -4 h 4 v -4 z m -28,-51 h 4 v 4 h -4 z m 4,4 h 4 v 4 h -4 z m -4,4 h 4 v 4 h -4 z m 8,-8 h 4 v 4 h -4 z"
     id="path2-3"
     inkscape:connector-curvature="0"
     style="fill:#000000;fill-rule:evenodd" />
  <path
     id="path817-31"
     d="m 167.61299,159.35636 5,20 h -10 z m 42,31 a 3,3 0 1 0 0,-6 3,3 0 0 0 0,6 z m -53,41 h 40 v 4 h -40 z m 0,-8 h 31 v 4 h -31 z m 20,-16 h 20 v 4 h -20 z m -20,8 h 40 v 4 h -40 z m 63,-25 a 3,3 0 1 0 0,-6 3,3 0 0 0 0,6 z m 10,0 a 3,3 0 1 0 0,-6 3,3 0 0 0 0,6 z m -20,10 a 3,3 0 1 0 0,-6 3,3 0 0 0 0,6 z m 10,0 a 3,3 0 1 0 0,-6 3,3 0 0 0 0,6 z m 10,0 a 3,3 0 1 0 0,-6 3,3 0 0 0 0,6 z m -30,0 a 3,3 0 1 0 0,-6 3,3 0 0 0 0,6 z m -28,-8 a 5,5 0 0 0 -10,0 z m 10,0 a 5,5 0 0 1 -10,0 z m 31,-28 a 5,5 0 0 0 -10,0 z m 10,0 a 5,5 0 0 1 -10,0 z m -3,46 a 3,3 0 1 0 0,-6 3,3 0 0 0 0,6 z m 10,0 a 3,3 0 1 0 0,-6 3,3 0 0 0 0,6 z m -52,-51 5,20 h -10 z m 43,64 v -4 h -4 v 4 h -4 v 4 h 4 v 4 h 4 v -4 h 4 v -4 z m -28,-51 h 4 v 4 h -4 z m 4,4 h 4 v 4 h -4 z m -4,4 h 4 v 4 h -4 z m 8,-8 h 4 v 4 h -4 z"
     inkscape:connector-curvature="0"
     style="fill:#000000;fill-rule:evenodd" />
  <path
     inkscape:connector-curvature="0"
     style="fill:#000000;fill-rule:evenodd"
     id="path817-9-56"
     d="m 247.90357,159.2895 5,20 h -10 z m 42,31 a 3,3 0 1 0 0,-6 3,3 0 0 0 0,6 z m -53,41 h 39.99999 v 4 h -39.99999 z m 0,-8 h 30.99999 v 4 h -30.99999 z m 19.99999,-16 h 20 v 4 h -20 z m -19.99999,8 h 39.99999 v 4 h -39.99999 z m 63,-25 a 3,3 0 1 0 0,-6 3,3 0 0 0 0,6 z m 10,0 a 3,3 0 1 0 0,-6 3,3 0 0 0 0,6 z m -20,10 a 3,3 0 1 0 0,-6 3,3 0 0 0 0,6 z m 10,0 a 3,3 0 1 0 0,-6 3,3 0 0 0 0,6 z m 10,0 a 3,3 0 1 0 0,-6 3,3 0 0 0 0,6 z m -30.00001,0 a 3,3 0 1 0 0,-6 3,3 0 0 0 0,6 z m -27.99999,-8 a 5,5 0 0 0 -10,0 z m 9.99999,0 a 5,5 0 0 1 -9.99999,0 z m 31.00001,-28 a 5.000005,5.000005 0 0 0 -10.00001,0 z m 10,0 a 5,5 0 0 1 -10,0 z m -3,46 a 3,3 0 1 0 0,-6 3,3 0 0 0 0,6 z m 10,0 a 3,3 0 1 0 0,-6 3,3 0 0 0 0,6 z m -52.00001,-51 5,20 h -9.99999 z m 43.00001,64 v -4 h -4 v 4 h -4 v 4 h 4 v 4 h 4 v -4 h 4 v -4 z m -28.00001,-51 h 4 v 4 h -4 z m 4,4 h 4 v 4 h -4 z m -4,4 h 4 v 4 h -4 z m 8,-8 h 4 v 4 h -4 z" />
  <path
     inkscape:connector-curvature="0"
     style="fill:#000000;fill-rule:evenodd"
     id="path817-99-1"
     d="m 167.91808,239.49195 5,20.00001 h -10 z m 41.99999,31.00001 a 3,3 0 1 0 0,-6 3,3 0 0 0 0,6 z m -52.99999,41 h 40 v 4 h -40 z m 0,-8 h 31 v 4 h -31 z m 20,-16 h 20 v 4 h -20 z m -20,8 h 40 v 4 h -40 z m 62.99999,-25 a 3,3 0 1 0 0,-6 3,3 0 0 0 0,6 z m 10,0 a 3,3 0 1 0 0,-6 3,3 0 0 0 0,6 z m -20,10 a 3,3 0 1 0 0,-6 3,3 0 0 0 0,6 z m 10,0 a 3,3 0 1 0 0,-6 3,3 0 0 0 0,6 z m 10,0 a 3,3 0 1 0 0,-6 3,3 0 0 0 0,6 z m -29.99999,0 a 3,3 0 1 0 0,-6 3,3 0 0 0 0,6 z m -28,-8 a 5,5 0 0 0 -10,0 z m 10,0 a 5,5 0 0 1 -10,0 z m 30.99999,-28.00001 a 5,5 0 0 0 -10,0 z m 10,0 a 5,5 0 0 1 -10,0 z m -3,46.00001 a 3,3 0 1 0 0,-6 3,3 0 0 0 0,6 z m 10,0 a 3,3 0 1 0 0,-6 3,3 0 0 0 0,6 z m -51.99999,-51.00001 5,20.00001 h -10 z m 42.99999,64.00001 v -4 h -4 v 4 h -4 v 4 h 4 v 4 h 4 v -4 h 4 v -4 z m -27.99999,-51.00001 h 4 v 4 h -4 z m 4,4 h 4 v 4.00001 h -4 z m -4,4.00001 h 4 v 4 h -4 z m 8,-8.00001 h 3.99999 v 4 h -3.99999 z" />
  <path
     inkscape:connector-curvature="0"
     style="fill:#000000;fill-rule:evenodd"
     id="path817-3-6"
     d="m 248.08757,239.66144 5,20.00001 h -10 z m 41.99999,31.00001 a 3,3 0 1 0 0,-6 3,3 0 0 0 0,6 z m -52.99999,41 h 39.99999 v 4 h -39.99999 z m 0,-8 h 30.99999 v 4 h -30.99999 z m 20,-16 h 19.99999 v 4 h -19.99999 z m -20,8 h 39.99999 v 4 h -39.99999 z m 62.99999,-25.00001 a 3,3 0 1 0 0,-6 3,3 0 0 0 0,6 z m 10,0 a 3,3 0 1 0 0,-6 3,3 0 0 0 0,6 z m -20,10.00001 a 3.000005,3.000005 0 1 0 0,-6.00001 3.000005,3.000005 0 0 0 0,6.00001 z m 10,0 a 3.000005,3.000005 0 1 0 0,-6.00001 3.000005,3.000005 0 0 0 0,6.00001 z m 10,0 a 3.000005,3.000005 0 1 0 0,-6.00001 3.000005,3.000005 0 0 0 0,6.00001 z m -30,0 a 3.000005,3.000005 0 1 0 0,-6.00001 3.000005,3.000005 0 0 0 0,6.00001 z m -27.99999,-8.00001 a 5,5 0 0 0 -10,0 z m 9.99999,0 a 5,5 0 0 1 -9.99999,0 z m 31,-28 a 5,5 0 0 0 -10,0 z m 10,0 a 5,5 0 0 1 -10,0 z m -3,46.00001 a 3,3 0 1 0 0,-6 3,3 0 0 0 0,6 z m 10,0 a 3,3 0 1 0 0,-6 3,3 0 0 0 0,6 z m -51.99999,-51.00001 4.99999,20 h -9.99999 z m 42.99999,64.00001 v -4 h -4 v 4 h -4 v 4 h 4 v 4 h 4 v -4 h 4 v -4 z m -28,-51.00001 h 4 v 4 h -4 z m 4,4 h 4 v 4 h -4 z m -4,4 h 4 v 4 h -4 z m 8,-8 h 4 v 4 h -4 z" />
  <path
     d="m 167.54455,0.542805 5,20 h -10 z m 42,31 a 3,3 0 1 0 0,-6 3,3 0 0 0 0,6 z m -53,40.999995 h 40 v 4 h -40 z m 0,-8 h 31 v 4 h -31 z m 20,-15.999995 h 20 v 4 h -20 z m -20,8 h 40 V 60.5428 h -40 z m 63,-25 a 3,3 0 1 0 0,-6 3,3 0 0 0 0,6 z m 10,0 a 3,3 0 1 0 0,-6 3,3 0 0 0 0,6 z m -20,10 a 3,3 0 1 0 0,-6 3,3 0 0 0 0,6 z m 10,0 a 3,3 0 1 0 0,-6 3,3 0 0 0 0,6 z m 10,0 a 3,3 0 1 0 0,-6 3,3 0 0 0 0,6 z m -30,0 a 3,3 0 1 0 0,-6 3,3 0 0 0 0,6 z m -28,-8 a 5,5 0 0 0 -10,0 z m 10,0 a 5,5 0 0 1 -10,0 z m 31,-28 a 5,5 0 0 0 -10,0 z m 10,0 a 5,5 0 0 1 -10,0 z m -3,46 a 3,3 0 1 0 0,-6 3,3 0 0 0 0,6 z m 10,0 a 3,3 0 1 0 0,-6 3,3 0 0 0 0,6 z m -52,-51 5,20 h -10 z m 43,63.999995 v -4 h -4 v 4 h -4 v 4 h 4 v 4 h 4 v -4 h 4 v -4 z m -28,-50.999995 h 4 v 4 h -4 z m 4,4 h 4 v 4 h -4 z m -4,4 h 4 v 4 h -4 z m 8,-8 h 4 v 4 h -4 z"
     id="path2-96"
     inkscape:connector-curvature="0"
     style="fill:#000000;fill-rule:evenodd" />
  <path
     id="path817-1"
     d="m 167.54455,0.542805 5,20 h -10 z m 42,31 a 3,3 0 1 0 0,-6 3,3 0 0 0 0,6 z m -53,40.999995 h 40 v 4 h -40 z m 0,-8 h 31 v 4 h -31 z m 20,-15.999995 h 20 v 4 h -20 z m -20,8 h 40 V 60.5428 h -40 z m 63,-25 a 3,3 0 1 0 0,-6 3,3 0 0 0 0,6 z m 10,0 a 3,3 0 1 0 0,-6 3,3 0 0 0 0,6 z m -20,10 a 3,3 0 1 0 0,-6 3,3 0 0 0 0,6 z m 10,0 a 3,3 0 1 0 0,-6 3,3 0 0 0 0,6 z m 10,0 a 3,3 0 1 0 0,-6 3,3 0 0 0 0,6 z m -30,0 a 3,3 0 1 0 0,-6 3,3 0 0 0 0,6 z m -28,-8 a 5,5 0 0 0 -10,0 z m 10,0 a 5,5 0 0 1 -10,0 z m 31,-28 a 5,5 0 0 0 -10,0 z m 10,0 a 5,5 0 0 1 -10,0 z m -3,46 a 3,3 0 1 0 0,-6 3,3 0 0 0 0,6 z m 10,0 a 3,3 0 1 0 0,-6 3,3 0 0 0 0,6 z m -52,-51 5,20 h -10 z m 43,63.999995 v -4 h -4 v 4 h -4 v 4 h 4 v 4 h 4 v -4 h 4 v -4 z m -28,-50.999995 h 4 v 4 h -4 z m 4,4 h 4 v 4 h -4 z m -4,4 h 4 v 4 h -4 z m 8,-8 h 4 v 4 h -4 z"
     inkscape:connector-curvature="0"
     style="fill:#000000;fill-rule:evenodd" />
  <path
     inkscape:connector-curvature="0"
     style="fill:#000000;fill-rule:evenodd"
     id="path817-9-7"
     d="m 247.83513,0.475945 5,20 h -10 z m 42,31 a 3,3 0 1 0 0,-6 3,3 0 0 0 0,6 z m -53,40.999994 h 39.99999 v 4 h -39.99999 z m 0,-8 h 30.99999 v 4 h -30.99999 z m 19.99999,-15.999994 h 20 v 4 h -20 z m -19.99999,8 h 39.99999 v 3.999994 h -39.99999 z m 63,-25 a 3,3 0 1 0 0,-6 3,3 0 0 0 0,6 z m 10,0 a 3,3 0 1 0 0,-6 3,3 0 0 0 0,6 z m -20,10 a 3,3 0 1 0 0,-6 3,3 0 0 0 0,6 z m 10,0 a 3,3 0 1 0 0,-6 3,3 0 0 0 0,6 z m 10,0 a 3,3 0 1 0 0,-6 3,3 0 0 0 0,6 z m -30.00001,0 a 3,3 0 1 0 0,-6 3,3 0 0 0 0,6 z m -27.99999,-8 a 5,5 0 0 0 -10,0 z m 9.99999,0 a 5,5 0 0 1 -9.99999,0 z m 31.00001,-28 a 5.000005,5.000005 0 0 0 -10.00001,0 z m 10,0 a 5,5 0 0 1 -10,0 z m -3,46 a 3,3 0 1 0 0,-6 3,3 0 0 0 0,6 z m 10,0 a 3,3 0 1 0 0,-6 3,3 0 0 0 0,6 z m -52.00001,-51 5,20 h -9.99999 z m 43.00001,63.999994 v -4 h -4 v 4 h -4 v 4 h 4 v 4 h 4 v -4 h 4 v -4 z M 272.83512,13.475945 h 4 v 4 h -4 z m 4,4 h 4 v 4 h -4 z m -4,4 h 4 v 4 h -4 z m 8,-8 h 4 v 4 h -4 z" />
  <path
     inkscape:connector-curvature="0"
     style="fill:#000000;fill-rule:evenodd"
     id="path817-99-84"
     d="m 167.84964,80.678393 5,19.999997 h -10 z m 41.99999,30.999997 a 3,3 0 1 0 0,-6 3,3 0 0 0 0,6 z m -52.99999,41.00001 h 40 v 4 h -40 z m 0,-8 h 31 v 3.99999 h -31 z m 20,-16.00001 h 20 v 4 h -20 z m -20,8.00001 h 40 v 4 h -40 z m 62.99999,-25.00001 a 3,3 0 1 0 0,-6 3,3 0 0 0 0,6 z m 10,0 a 3,3 0 1 0 0,-6 3,3 0 0 0 0,6 z m -20,10 a 3,3 0 1 0 0,-6 3,3 0 0 0 0,6 z m 10,0 a 3,3 0 1 0 0,-6 3,3 0 0 0 0,6 z m 10,0 a 3,3 0 1 0 0,-6 3,3 0 0 0 0,6 z m -29.99999,0 a 3,3 0 1 0 0,-6 3,3 0 0 0 0,6 z m -28,-8 a 5,5 0 0 0 -10,0 z m 10,0 a 5,5 0 0 1 -10,0 z m 30.99999,-27.999997 a 5,5 0 0 0 -10,0 z m 10,0 a 5,5 0 0 1 -10,0 z m -3,45.999997 a 3,3 0 1 0 0,-6 3,3 0 0 0 0,6 z m 10,0 a 3,3 0 1 0 0,-6 3,3 0 0 0 0,6 z m -51.99999,-50.999997 5,19.999997 h -10 z m 42.99999,64.000007 v -4 h -4 v 4 h -4 v 3.99999 h 4 v 4.00001 h 4 v -4.00001 h 4 V 144.6784 Z M 192.84964,93.678394 h 4 v 4 h -4 z m 4,4 h 4 v 3.999996 h -4 z m -4,3.999996 h 4 v 4 h -4 z m 8,-7.999996 h 3.99999 v 4 h -3.99999 z" />
  <path
     inkscape:connector-curvature="0"
     style="fill:#000000;fill-rule:evenodd"
     id="path817-3-8"
     d="m 248.01913,80.847885 5,19.999995 h -10 z m 41.99999,30.999995 a 3,3 0 1 0 0,-6 3,3 0 0 0 0,6 z m -52.99999,41.00002 h 39.99999 v 4 h -39.99999 z m 0,-8 h 30.99999 v 3.99999 h -30.99999 z m 20,-16.00001 h 19.99999 v 4 h -19.99999 z m -20,8.00001 h 39.99999 v 4 h -39.99999 z m 62.99999,-25.00002 a 3,3 0 1 0 0,-6 3,3 0 0 0 0,6 z m 10,0 a 3,3 0 1 0 0,-6 3,3 0 0 0 0,6 z m -20,10.00001 a 3.000005,3.000005 0 1 0 0,-6.00001 3.000005,3.000005 0 0 0 0,6.00001 z m 10,0 a 3.000005,3.000005 0 1 0 0,-6.00001 3.000005,3.000005 0 0 0 0,6.00001 z m 10,0 a 3.000005,3.000005 0 1 0 0,-6.00001 3.000005,3.000005 0 0 0 0,6.00001 z m -30,0 a 3.000005,3.000005 0 1 0 0,-6.00001 3.000005,3.000005 0 0 0 0,6.00001 z m -27.99999,-8.00001 a 5,5 0 0 0 -10,0 z m 9.99999,0 a 5,5 0 0 1 -9.99999,0 z m 31,-27.999995 a 5,5 0 0 0 -10,0 z m 10,0 a 5,5 0 0 1 -10,0 z m -3,46.000005 a 3,3 0 1 0 0,-6 3,3 0 0 0 0,6 z m 10,0 a 3,3 0 1 0 0,-6 3,3 0 0 0 0,6 z m -51.99999,-51.000005 4.99999,19.999995 h -9.99999 z m 42.99999,64.000015 v -4 h -4 v 4 h -4 v 3.99999 h 4 v 4.00001 h 4 v -4.00001 h 4 v -3.99999 z m -28,-51.000015 h 4 v 4 h -4 z m 4,4 h 4 v 3.999995 h -4 z m -4,3.999995 h 4 v 4 h -4 z m 8,-7.999995 h 4 v 4 h -4 z" />
  <path
     d="m 11.410183,479.22091 5,20 H 6.4101835 Z m 42,31 a 3,3 0 1 0 0,-6 3,3 0 0 0 0,6 z m -52.99999944,41 H 40.410183 v 4 H 0.41018356 Z m 0,-8 H 31.410183 v 4 H 0.41018356 Z m 19.99999944,-16 h 20 v 4 h -20 z m -19.99999944,8 H 40.410183 v 4 H 0.41018356 Z m 62.99999944,-25 a 3,3 0 1 0 0,-6 3,3 0 0 0 0,6 z m 10,0 a 3,3 0 1 0 0,-6 3,3 0 0 0 0,6 z m -20,10 a 3,3 0 1 0 0,-6 3,3 0 0 0 0,6 z m 10,0 a 3,3 0 1 0 0,-6 3,3 0 0 0 0,6 z m 10,0 a 3,3 0 1 0 0,-6 3,3 0 0 0 0,6 z m -30,0 a 3,3 0 1 0 0,-6 3,3 0 0 0 0,6 z m -28,-8 a 5,5 0 0 0 -9.9999995,0 z m 10,0 a 5,5 0 0 1 -10,0 z m 31,-28 a 5,5 0 0 0 -10,0 z m 10,0 a 5,5 0 0 1 -10,0 z m -3,46 a 3,3 0 1 0 0,-6 3,3 0 0 0 0,6 z m 10,0 a 3,3 0 1 0 0,-6 3,3 0 0 0 0,6 z m -52,-51 5,20 h -10 z m 43,64 v -4 h -4 v 4 h -4 v 4 h 4 v 4 h 4 v -4 h 4 v -4 z m -28,-51 h 4 v 4 h -4 z m 4,4 h 4 v 4 h -4 z m -4,4 h 4 v 4 h -4 z m 8,-8 h 4 v 4 h -4 z"
     id="path2-2"
     inkscape:connector-curvature="0"
     style="fill:#000000;fill-rule:evenodd" />
  <path
     id="path817-16"
     d="m 11.410183,479.22091 5,20 H 6.4101835 Z m 42,31 a 3,3 0 1 0 0,-6 3,3 0 0 0 0,6 z m -52.99999944,41 H 40.410183 v 4 H 0.41018356 Z m 0,-8 H 31.410183 v 4 H 0.41018356 Z m 19.99999944,-16 h 20 v 4 h -20 z m -19.99999944,8 H 40.410183 v 4 H 0.41018356 Z m 62.99999944,-25 a 3,3 0 1 0 0,-6 3,3 0 0 0 0,6 z m 10,0 a 3,3 0 1 0 0,-6 3,3 0 0 0 0,6 z m -20,10 a 3,3 0 1 0 0,-6 3,3 0 0 0 0,6 z m 10,0 a 3,3 0 1 0 0,-6 3,3 0 0 0 0,6 z m 10,0 a 3,3 0 1 0 0,-6 3,3 0 0 0 0,6 z m -30,0 a 3,3 0 1 0 0,-6 3,3 0 0 0 0,6 z m -28,-8 a 5,5 0 0 0 -9.9999995,0 z m 10,0 a 5,5 0 0 1 -10,0 z m 31,-28 a 5,5 0 0 0 -10,0 z m 10,0 a 5,5 0 0 1 -10,0 z m -3,46 a 3,3 0 1 0 0,-6 3,3 0 0 0 0,6 z m 10,0 a 3,3 0 1 0 0,-6 3,3 0 0 0 0,6 z m -52,-51 5,20 h -10 z m 43,64 v -4 h -4 v 4 h -4 v 4 h 4 v 4 h 4 v -4 h 4 v -4 z m -28,-51 h 4 v 4 h -4 z m 4,4 h 4 v 4 h -4 z m -4,4 h 4 v 4 h -4 z m 8,-8 h 4 v 4 h -4 z"
     inkscape:connector-curvature="0"
     style="fill:#000000;fill-rule:evenodd" />
  <path
     inkscape:connector-curvature="0"
     style="fill:#000000;fill-rule:evenodd"
     id="path817-9-3"
     d="m 91.700763,479.15406 5,20 h -10 z m 42.000017,31 a 3,3 0 1 0 0,-6 3,3 0 0 0 0,6 z m -53.000017,40.99999 h 40.000007 v 4 H 80.700763 Z m 0,-8 h 31.000007 v 4 H 80.700763 Z m 20.000007,-16 h 20 v 4 h -20 z m -20.000007,8 h 40.000007 v 4 H 80.700763 Z m 63.000017,-24.99999 a 3,3 0 1 0 0,-6 3,3 0 0 0 0,6 z m 10,0 a 3,3 0 1 0 0,-6 3,3 0 0 0 0,6 z m -20,9.99999 a 3,3 0 1 0 0,-6 3,3 0 0 0 0,6 z m 10,0 a 3,3 0 1 0 0,-6 3,3 0 0 0 0,6 z m 10,0 a 3,3 0 1 0 0,-6 3,3 0 0 0 0,6 z m -30.00001,0 a 3,3 0 1 0 0,-6 3,3 0 0 0 0,6 z m -28.000007,-8 a 5,5 0 0 0 -10,0 z m 10.000007,0 a 5.000001,5.000001 0 0 1 -10.000007,0 z m 31.00001,-27.99999 a 5.000005,5.000005 0 0 0 -10.00001,0 z m 10,0 a 5,5 0 0 1 -10,0 z m -3,45.99999 a 3,3 0 1 0 0,-6 3,3 0 0 0 0,6 z m 10,0 a 3,3 0 1 0 0,-6 3,3 0 0 0 0,6 z m -52.00001,-50.99999 5,20 H 96.700763 Z m 43.00001,63.99999 v -4 h -4 v 4 h -4 v 4 h 4 v 4 h 4 v -4 h 4 v -4 z m -28.00001,-50.99999 h 4 v 4 h -4 z m 4,4 h 4 v 4 h -4 z m -4,4 h 4 v 4 h -4 z m 8,-8 h 4 v 4 h -4 z" />
  <path
     inkscape:connector-curvature="0"
     style="fill:#000000;fill-rule:evenodd"
     id="path817-99-9"
     d="m 11.715273,559.3565 5,20.00001 H 6.7152735 Z m 41.99999,31.00001 a 3,3 0 1 0 0,-6 3,3 0 0 0 0,6 z m -52.99998944,41 H 40.715273 v 4 H 0.71527356 Z m 0,-8 H 31.715273 v 4 H 0.71527356 Z m 19.99999944,-16 h 20 v 4 h -20 z m -19.99999944,8 H 40.715273 v 4 H 0.71527356 Z m 62.99998944,-25 a 3,3 0 1 0 0,-6 3,3 0 0 0 0,6 z m 10,0 a 3,3 0 1 0 0,-6 3,3 0 0 0 0,6 z m -20,10 a 3,3 0 1 0 0,-6 3,3 0 0 0 0,6 z m 10,0 a 3,3 0 1 0 0,-6 3,3 0 0 0 0,6 z m 10,0 a 3,3 0 1 0 0,-6 3,3 0 0 0 0,6 z m -29.99999,0 a 3,3 0 1 0 0,-6 3,3 0 0 0 0,6 z m -28,-8 a 5,5 0 0 0 -9.9999995,0 z m 10,0 a 5,5 0 0 1 -10,0 z m 30.99999,-28.00001 a 5,5 0 0 0 -10,0 z m 10,0 a 5,5 0 0 1 -10,0 z m -3,46.00001 a 3,3 0 1 0 0,-6 3,3 0 0 0 0,6 z m 10,0 a 3,3 0 1 0 0,-6 3,3 0 0 0 0,6 z m -51.99999,-51.00001 5,20.00001 h -10 z m 42.99999,64.00001 v -4 h -4 v 4 h -4 v 4 h 4 v 4 h 4 v -4 h 4 v -4 z M 36.715273,572.3565 h 4 v 4.00001 h -4 z m 4,4.00001 h 4 v 4 h -4 z m -4,4 h 4 v 4 h -4 z m 8,-8.00001 h 3.99999 v 4.00001 h -3.99999 z" />
  <path
     inkscape:connector-curvature="0"
     style="fill:#000000;fill-rule:evenodd"
     id="path817-3-7"
     d="m 91.884763,559.526 5,20 h -10 z m 42.000007,31 a 3,3 0 1 0 0,-6 3,3 0 0 0 0,6 z m -53.000007,41 h 40.000007 v 4 H 80.884763 Z m 0,-8 h 31.000007 v 4 H 80.884763 Z m 20.000017,-16 h 19.99999 v 4 h -19.99999 z m -20.000017,8 h 40.000007 v 4 H 80.884763 Z m 63.000007,-25 a 3,3 0 1 0 0,-6 3,3 0 0 0 0,6 z m 10,0 a 3,3 0 1 0 0,-6 3,3 0 0 0 0,6 z m -20,10 a 3.000005,3.000005 0 1 0 0,-6 3.000005,3.000005 0 0 0 0,6 z m 10,0 a 3.000005,3.000005 0 1 0 0,-6 3.000005,3.000005 0 0 0 0,6 z m 10,0 a 3.000005,3.000005 0 1 0 0,-6 3.000005,3.000005 0 0 0 0,6 z m -30,0 a 3.000005,3.000005 0 1 0 0,-6 3.000005,3.000005 0 0 0 0,6 z m -28.000007,-8 a 5,5 0 0 0 -10,0 z m 10.000007,0 a 5.000001,5.000001 0 0 1 -10.000007,0 z m 31,-28 a 5,5 0 0 0 -10,0 z m 10,0 a 5,5 0 0 1 -10,0 z m -3,46 a 3,3 0 1 0 0,-6 3,3 0 0 0 0,6 z m 10,0 a 3,3 0 1 0 0,-6 3,3 0 0 0 0,6 z m -51.99999,-51 4.99999,20 H 96.884763 Z m 42.99999,64 v -4 h -4 v 4 h -4 v 4 h 4 v 4 h 4 v -4 h 4 v -4 z m -28,-51 h 4 v 4 h -4 z m 4,4 h 4 v 4 h -4 z m -4,4 h 4 v 4 h -4 z m 8,-8 h 4 v 4 h -4 z" />
  <path
     d="m 11.314193,319.93216 5,20 H 6.3141935 Z m 42,31 a 3,3 0 1 0 0,-6 3,3 0 0 0 0,6 z M 0.31419356,391.93218 H 40.314193 v 4 H 0.31419356 Z m 0,-8 H 31.314193 v 4 H 0.31419356 Z M 20.314193,367.93216 h 20 v 4 h -20 z m -19.99999944,8 H 40.314193 v 4.00002 H 0.31419356 Z m 62.99999944,-25 a 3,3 0 1 0 0,-6 3,3 0 0 0 0,6 z m 10,0 a 3,3 0 1 0 0,-6 3,3 0 0 0 0,6 z m -20,10 a 3,3 0 1 0 0,-6 3,3 0 0 0 0,6 z m 10,0 a 3,3 0 1 0 0,-6 3,3 0 0 0 0,6 z m 10,0 a 3,3 0 1 0 0,-6 3,3 0 0 0 0,6 z m -30,0 a 3,3 0 1 0 0,-6 3,3 0 0 0 0,6 z m -28,-8 a 5.0000002,5.0000002 0 0 0 -9.9999995,0 z m 10,0 a 5,5 0 0 1 -10,0 z m 31,-28 a 5,5 0 0 0 -10,0 z m 10,0 a 5,5 0 0 1 -10,0 z m -3,46 a 3,3 0 1 0 0,-6 3,3 0 0 0 0,6 z m 10,0 a 3,3 0 1 0 0,-6 3,3 0 0 0 0,6 z m -52,-51 5,20 h -10 z m 43,64.00002 v -4 h -4 v 4 h -4 v 4 h 4 v 4 h 4 v -4 h 4 v -4 z m -28,-51.00002 h 4 v 4 h -4 z m 4,4 h 4 v 4 h -4 z m -4,4 h 4 v 4 h -4 z m 8,-8 h 4 v 4 h -4 z"
     id="path2-9-8"
     inkscape:connector-curvature="0"
     style="fill:#000000;fill-rule:evenodd" />
  <path
     id="path817-8-4"
     d="m 11.314193,319.93216 5,20 H 6.3141935 Z m 42,31 a 3,3 0 1 0 0,-6 3,3 0 0 0 0,6 z M 0.31419356,391.93218 H 40.314193 v 4 H 0.31419356 Z m 0,-8 H 31.314193 v 4 H 0.31419356 Z M 20.314193,367.93216 h 20 v 4 h -20 z m -19.99999944,8 H 40.314193 v 4.00002 H 0.31419356 Z m 62.99999944,-25 a 3,3 0 1 0 0,-6 3,3 0 0 0 0,6 z m 10,0 a 3,3 0 1 0 0,-6 3,3 0 0 0 0,6 z m -20,10 a 3,3 0 1 0 0,-6 3,3 0 0 0 0,6 z m 10,0 a 3,3 0 1 0 0,-6 3,3 0 0 0 0,6 z m 10,0 a 3,3 0 1 0 0,-6 3,3 0 0 0 0,6 z m -30,0 a 3,3 0 1 0 0,-6 3,3 0 0 0 0,6 z m -28,-8 a 5.0000002,5.0000002 0 0 0 -9.9999995,0 z m 10,0 a 5,5 0 0 1 -10,0 z m 31,-28 a 5,5 0 0 0 -10,0 z m 10,0 a 5,5 0 0 1 -10,0 z m -3,46 a 3,3 0 1 0 0,-6 3,3 0 0 0 0,6 z m 10,0 a 3,3 0 1 0 0,-6 3,3 0 0 0 0,6 z m -52,-51 5,20 h -10 z m 43,64.00002 v -4 h -4 v 4 h -4 v 4 h 4 v 4 h 4 v -4 h 4 v -4 z m -28,-51.00002 h 4 v 4 h -4 z m 4,4 h 4 v 4 h -4 z m -4,4 h 4 v 4 h -4 z m 8,-8 h 4 v 4 h -4 z"
     inkscape:connector-curvature="0"
     style="fill:#000000;fill-rule:evenodd" />
  <path
     inkscape:connector-curvature="0"
     style="fill:#000000;fill-rule:evenodd"
     id="path817-9-5-6"
     d="m 91.604763,319.86531 5,20 h -10 z m 42.000017,31 a 3,3 0 1 0 0,-6 3,3 0 0 0 0,6 z m -53.000017,41 h 40.000007 v 4 H 80.604763 Z m 0,-8 h 31.000007 v 4 H 80.604763 Z m 20.000007,-16 h 20 v 4 h -20 z m -20.000007,8 h 40.000007 v 4 H 80.604763 Z m 63.000017,-25 a 3,3 0 1 0 0,-6 3,3 0 0 0 0,6 z m 10,0 a 3,3 0 1 0 0,-6 3,3 0 0 0 0,6 z m -20,10 a 3,3 0 1 0 0,-6 3,3 0 0 0 0,6 z m 10,0 a 3,3 0 1 0 0,-6 3,3 0 0 0 0,6 z m 10,0 a 3,3 0 1 0 0,-6 3,3 0 0 0 0,6 z m -30.00001,0 a 3,3 0 1 0 0,-6 3,3 0 0 0 0,6 z m -28.000007,-8 a 5,5 0 0 0 -10,0 z m 10.000007,0 a 5.000001,5.000001 0 0 1 -10.000007,0 z m 31.00001,-28 a 5.000005,5.000005 0 0 0 -10.00001,0 z m 10,0 a 5,5 0 0 1 -10,0 z m -3,46 a 3,3 0 1 0 0,-6 3,3 0 0 0 0,6 z m 10,0 a 3,3 0 1 0 0,-6 3,3 0 0 0 0,6 z m -52.00001,-51 5,20 H 96.604763 Z m 43.00001,64 v -4 h -4 v 4 h -4 v 4 h 4 v 4 h 4 v -4 h 4 v -4 z m -28.00001,-51 h 4 v 4 h -4 z m 4,4 h 4 v 4 h -4 z m -4,4 h 4 v 4 h -4 z m 8,-8 h 4 v 4 h -4 z" />
  <path
     inkscape:connector-curvature="0"
     style="fill:#000000;fill-rule:evenodd"
     id="path817-99-8-3"
     d="m 11.619273,400.06776 5,20.00001 H 6.6192735 Z m 42,31.00001 a 3,3 0 1 0 0,-6 3,3 0 0 0 0,6 z m -52.99999944,41 H 40.619273 v 4 H 0.61927356 Z m 0,-8 H 31.619273 v 4 H 0.61927356 Z m 19.99999944,-16 h 20 v 4 h -20 z m -19.99999944,8 H 40.619273 v 4 H 0.61927356 Z m 62.99999944,-25 a 3,3 0 1 0 0,-6 3,3 0 0 0 0,6 z m 10,0 a 3,3 0 1 0 0,-6 3,3 0 0 0 0,6 z m -20,10 a 3.0000002,3.0000002 0 1 0 0,-6 3.0000002,3.0000002 0 0 0 0,6 z m 10,0 a 3.0000002,3.0000002 0 1 0 0,-6 3.0000002,3.0000002 0 0 0 0,6 z m 10,0 a 3.0000002,3.0000002 0 1 0 0,-6 3.0000002,3.0000002 0 0 0 0,6 z m -30,0 a 3.0000002,3.0000002 0 1 0 0,-6 3.0000002,3.0000002 0 0 0 0,6 z m -28,-8 a 5.0000002,5.0000002 0 0 0 -9.9999995,0 z m 10,0 a 5,5 0 0 1 -10,0 z m 31,-28.00001 a 5,5 0 0 0 -10,0 z m 10,0 a 5,5 0 0 1 -10,0 z m -3,46.00001 a 3,3 0 1 0 0,-6 3,3 0 0 0 0,6 z m 10,0 a 3,3 0 1 0 0,-6 3,3 0 0 0 0,6 z m -52,-51.00001 5,20.00001 h -10 z m 43,64.00001 v -4 h -4 v 4 h -4 v 4 h 4 v 4 h 4 v -4 h 4 v -4 z m -28,-51.00001 h 4 v 4 h -4 z m 4,4 h 4 v 4.00001 h -4 z m -4,4.00001 h 4 v 4 h -4 z m 8,-8.00001 h 4 v 4 h -4 z" />
  <path
     inkscape:connector-curvature="0"
     style="fill:#000000;fill-rule:evenodd"
     id="path817-3-3-8"
     d="m 91.788763,400.23725 5,20.00001 h -10 z m 42.000007,31.00001 a 3,3 0 1 0 0,-6 3,3 0 0 0 0,6 z m -53.000007,41.00001 h 40.000007 v 4 H 80.788763 Z m 0,-8 h 31.000007 v 4 H 80.788763 Z m 20.000017,-16 h 19.99999 v 4 h -19.99999 z m -20.000017,8 h 40.000007 v 4 H 80.788763 Z m 63.000007,-25 a 3,3 0 1 0 0,-6 3,3 0 0 0 0,6 z m 10,0 a 3,3 0 1 0 0,-6 3,3 0 0 0 0,6 z m -20,10 a 3.0000051,3.0000051 0 1 0 0,-6 3.0000051,3.0000051 0 0 0 0,6 z m 10,0 a 3.0000051,3.0000051 0 1 0 0,-6 3.0000051,3.0000051 0 0 0 0,6 z m 10,0 a 3.0000051,3.0000051 0 1 0 0,-6 3.0000051,3.0000051 0 0 0 0,6 z m -30,0 a 3.0000051,3.0000051 0 1 0 0,-6 3.0000051,3.0000051 0 0 0 0,6 z m -28.000007,-8 a 5,5 0 0 0 -10,0 z m 10.000007,0 a 5.000001,5.000001 0 0 1 -10.000007,0 z m 31,-28.00002 a 5,5 0 0 0 -10,0 z m 10,0 a 5,5 0 0 1 -10,0 z m -3,46.00002 a 3,3 0 1 0 0,-6 3,3 0 0 0 0,6 z m 10,0 a 3,3 0 1 0 0,-6 3,3 0 0 0 0,6 z m -51.99999,-51.00002 4.99999,20.00001 H 96.788763 Z m 42.99999,64.00002 v -4 h -4 v 4 h -4 v 4 h 4 v 4 h 4 v -4 h 4 v -4 z m -28,-51.00002 h 4 v 4 h -4 z m 4,4 h 4 v 4.00001 h -4 z m -4,4.00001 h 4 v 4 h -4 z m 8,-8.00001 h 4 v 4 h -4 z" />
  <path
     d="m 167.92719,479.22167 5,20 h -10 z m 42,31 a 3,3 0 1 0 0,-6 3,3 0 0 0 0,6 z m -53,41 h 40 v 4 h -40 z m 0,-8 h 31 v 4 h -31 z m 20,-16 h 20 v 4 h -20 z m -20,8 h 40 v 4 h -40 z m 63,-25 a 3,3 0 1 0 0,-6 3,3 0 0 0 0,6 z m 10,0 a 3,3 0 1 0 0,-6 3,3 0 0 0 0,6 z m -20,10 a 3,3 0 1 0 0,-6 3,3 0 0 0 0,6 z m 10,0 a 3,3 0 1 0 0,-6 3,3 0 0 0 0,6 z m 10,0 a 3,3 0 1 0 0,-6 3,3 0 0 0 0,6 z m -30,0 a 3,3 0 1 0 0,-6 3,3 0 0 0 0,6 z m -28,-8 a 5,5 0 0 0 -10,0 z m 10,0 a 5,5 0 0 1 -10,0 z m 31,-28 a 5,5 0 0 0 -10,0 z m 10,0 a 5,5 0 0 1 -10,0 z m -3,46 a 3,3 0 1 0 0,-6 3,3 0 0 0 0,6 z m 10,0 a 3,3 0 1 0 0,-6 3,3 0 0 0 0,6 z m -52,-51 5,20 h -10 z m 43,64 v -4 h -4 v 4 h -4 v 4 h 4 v 4 h 4 v -4 h 4 v -4 z m -28,-51 h 4 v 4 h -4 z m 4,4 h 4 v 4 h -4 z m -4,4 h 4 v 4 h -4 z m 8,-8 h 4 v 4 h -4 z"
     id="path2-3-8"
     inkscape:connector-curvature="0"
     style="fill:#000000;fill-rule:evenodd" />
  <path
     id="path817-31-6"
     d="m 167.92719,479.22167 5,20 h -10 z m 42,31 a 3,3 0 1 0 0,-6 3,3 0 0 0 0,6 z m -53,41 h 40 v 4 h -40 z m 0,-8 h 31 v 4 h -31 z m 20,-16 h 20 v 4 h -20 z m -20,8 h 40 v 4 h -40 z m 63,-25 a 3,3 0 1 0 0,-6 3,3 0 0 0 0,6 z m 10,0 a 3,3 0 1 0 0,-6 3,3 0 0 0 0,6 z m -20,10 a 3,3 0 1 0 0,-6 3,3 0 0 0 0,6 z m 10,0 a 3,3 0 1 0 0,-6 3,3 0 0 0 0,6 z m 10,0 a 3,3 0 1 0 0,-6 3,3 0 0 0 0,6 z m -30,0 a 3,3 0 1 0 0,-6 3,3 0 0 0 0,6 z m -28,-8 a 5,5 0 0 0 -10,0 z m 10,0 a 5,5 0 0 1 -10,0 z m 31,-28 a 5,5 0 0 0 -10,0 z m 10,0 a 5,5 0 0 1 -10,0 z m -3,46 a 3,3 0 1 0 0,-6 3,3 0 0 0 0,6 z m 10,0 a 3,3 0 1 0 0,-6 3,3 0 0 0 0,6 z m -52,-51 5,20 h -10 z m 43,64 v -4 h -4 v 4 h -4 v 4 h 4 v 4 h 4 v -4 h 4 v -4 z m -28,-51 h 4 v 4 h -4 z m 4,4 h 4 v 4 h -4 z m -4,4 h 4 v 4 h -4 z m 8,-8 h 4 v 4 h -4 z"
     inkscape:connector-curvature="0"
     style="fill:#000000;fill-rule:evenodd" />
  <path
     inkscape:connector-curvature="0"
     style="fill:#000000;fill-rule:evenodd"
     id="path817-9-56-6"
     d="m 248.21777,479.1548 5,20 h -10 z m 42,31 a 3,3 0 1 0 0,-6 3,3 0 0 0 0,6 z m -53,41 h 39.99999 v 4 h -39.99999 z m 0,-8 h 30.99999 v 4 h -30.99999 z m 19.99999,-16 h 20 v 4 h -20 z m -19.99999,8 h 39.99999 v 4 h -39.99999 z m 63,-25 a 3,3 0 1 0 0,-6 3,3 0 0 0 0,6 z m 10,0 a 3,3 0 1 0 0,-6 3,3 0 0 0 0,6 z m -20,10 a 3,3 0 1 0 0,-6 3,3 0 0 0 0,6 z m 10,0 a 3,3 0 1 0 0,-6 3,3 0 0 0 0,6 z m 10,0 a 3,3 0 1 0 0,-6 3,3 0 0 0 0,6 z m -30.00001,0 a 3,3 0 1 0 0,-6 3,3 0 0 0 0,6 z m -27.99999,-8 a 5,5 0 0 0 -10,0 z m 9.99999,0 a 5,5 0 0 1 -9.99999,0 z m 31.00001,-28 a 5.000005,5.000005 0 0 0 -10.00001,0 z m 10,0 a 5,5 0 0 1 -10,0 z m -3,46 a 3,3 0 1 0 0,-6 3,3 0 0 0 0,6 z m 10,0 a 3,3 0 1 0 0,-6 3,3 0 0 0 0,6 z m -52.00001,-51 5,20 h -9.99999 z m 43.00001,64 v -4 h -4 v 4 h -4 v 4 h 4 v 4 h 4 v -4 h 4 v -4 z m -28.00001,-51 h 4 v 4 h -4 z m 4,4 h 4 v 4 h -4 z m -4,4 h 4 v 4 h -4 z m 8,-8 h 4 v 4 h -4 z" />
  <path
     inkscape:connector-curvature="0"
     style="fill:#000000;fill-rule:evenodd"
     id="path817-99-1-6"
     d="m 168.23228,559.35725 5,20.00001 h -10 z m 41.99999,31.00001 a 3,3 0 1 0 0,-6 3,3 0 0 0 0,6 z m -52.99999,41 h 40 v 4 h -40 z m 0,-8 h 31 v 4 h -31 z m 20,-16 h 20 v 4 h -20 z m -20,8 h 40 v 4 h -40 z m 62.99999,-25 a 3,3 0 1 0 0,-6 3,3 0 0 0 0,6 z m 10,0 a 3,3 0 1 0 0,-6 3,3 0 0 0 0,6 z m -20,10 a 3,3 0 1 0 0,-6 3,3 0 0 0 0,6 z m 10,0 a 3,3 0 1 0 0,-6 3,3 0 0 0 0,6 z m 10,0 a 3,3 0 1 0 0,-6 3,3 0 0 0 0,6 z m -29.99999,0 a 3,3 0 1 0 0,-6 3,3 0 0 0 0,6 z m -28,-8 a 5,5 0 0 0 -10,0 z m 10,0 a 5,5 0 0 1 -10,0 z m 30.99999,-28.00001 a 5,5 0 0 0 -10,0 z m 10,0 a 5,5 0 0 1 -10,0 z m -3,46.00002 a 3,3 0 1 0 0,-6 3,3 0 0 0 0,6 z m 10,0 a 3,3 0 1 0 0,-6 3,3 0 0 0 0,6 z m -51.99999,-51.00001 5,20.00001 h -10 z m 42.99999,64.00001 v -4 h -4 v 4 h -4 v 4 h 4 v 4 h 4 v -4 h 4 v -4 z m -27.99999,-51.00001 h 4 v 4 h -4 z m 4,4 h 4 v 4.00001 h -4 z m -4,4.00001 h 4 v 4 h -4 z m 8,-8.00001 h 3.99999 v 4 h -3.99999 z" />
  <path
     inkscape:connector-curvature="0"
     style="fill:#000000;fill-rule:evenodd"
     id="path817-3-6-3"
     d="m 248.40177,559.52674 5,20.00001 h -10 z m 41.99999,31.00001 a 3,3 0 1 0 0,-6 3,3 0 0 0 0,6 z m -52.99999,41 h 39.99999 v 4 h -39.99999 z m 0,-8 h 30.99999 v 4 h -30.99999 z m 20,-16 h 19.99999 v 4 h -19.99999 z m -20,8 h 39.99999 v 4 h -39.99999 z m 62.99999,-25.00001 a 3,3 0 1 0 0,-6 3,3 0 0 0 0,6 z m 10,0 a 3,3 0 1 0 0,-6 3,3 0 0 0 0,6 z m -20,10.00001 a 3.000005,3.000005 0 1 0 0,-6.00001 3.000005,3.000005 0 0 0 0,6.00001 z m 10,0 a 3.000005,3.000005 0 1 0 0,-6.00001 3.000005,3.000005 0 0 0 0,6.00001 z m 10,0 a 3.000005,3.000005 0 1 0 0,-6.00001 3.000005,3.000005 0 0 0 0,6.00001 z m -30,0 a 3.000005,3.000005 0 1 0 0,-6.00001 3.000005,3.000005 0 0 0 0,6.00001 z m -27.99999,-8.00001 a 5,5 0 0 0 -10,0 z m 9.99999,0 a 5,5 0 0 1 -9.99999,0 z m 31,-28 a 5,5 0 0 0 -10,0 z m 10,0 a 5,5 0 0 1 -10,0 z m -3,46.00002 a 3,3 0 1 0 0,-6 3,3 0 0 0 0,6 z m 10,0 a 3,3 0 1 0 0,-6 3,3 0 0 0 0,6 z m -51.99999,-51.00001 4.99999,20 h -9.99999 z m 42.99999,64.00001 v -4 h -4 v 4 h -4 v 4 h 4 v 4 h 4 v -4 h 4 v -4 z m -28,-51.00001 h 4 v 4 h -4 z m 4,4 h 4 v 4 h -4 z m -4,4 h 4 v 4 h -4 z m 8,-8 h 4 v 4 h -4 z" />
  <path
     d="m 167.85875,320.4081 5,20 h -10 z m 42,31 a 3,3 0 1 0 0,-6 3,3 0 0 0 0,6 z m -53,41 h 40 v 4 h -40 z m 0,-8 h 31 v 4 h -31 z m 20,-16 h 20 v 4 h -20 z m -20,8 h 40 v 4 h -40 z m 63,-25 a 3,3 0 1 0 0,-6 3,3 0 0 0 0,6 z m 10,0 a 3,3 0 1 0 0,-6 3,3 0 0 0 0,6 z m -20,10 a 3,3 0 1 0 0,-6 3,3 0 0 0 0,6 z m 10,0 a 3,3 0 1 0 0,-6 3,3 0 0 0 0,6 z m 10,0 a 3,3 0 1 0 0,-6 3,3 0 0 0 0,6 z m -30,0 a 3,3 0 1 0 0,-6 3,3 0 0 0 0,6 z m -28,-8 a 5,5 0 0 0 -10,0 z m 10,0 a 5,5 0 0 1 -10,0 z m 31,-28 a 5,5 0 0 0 -10,0 z m 10,0 a 5,5 0 0 1 -10,0 z m -3,46 a 3,3 0 1 0 0,-6 3,3 0 0 0 0,6 z m 10,0 a 3,3 0 1 0 0,-6 3,3 0 0 0 0,6 z m -52,-51 5,20 h -10 z m 43,64 v -4 h -4 v 4 h -4 v 4 h 4 v 4 h 4 v -4 h 4 v -4 z m -28,-51 h 4 v 4 h -4 z m 4,4 h 4 v 4 h -4 z m -4,4 h 4 v 4 h -4 z m 8,-8 h 4 v 4 h -4 z"
     id="path2-96-0"
     inkscape:connector-curvature="0"
     style="fill:#000000;fill-rule:evenodd" />
  <path
     id="path817-1-8"
     d="m 167.85875,320.4081 5,20 h -10 z m 42,31 a 3,3 0 1 0 0,-6 3,3 0 0 0 0,6 z m -53,41 h 40 v 4 h -40 z m 0,-8 h 31 v 4 h -31 z m 20,-16 h 20 v 4 h -20 z m -20,8 h 40 v 4 h -40 z m 63,-25 a 3,3 0 1 0 0,-6 3,3 0 0 0 0,6 z m 10,0 a 3,3 0 1 0 0,-6 3,3 0 0 0 0,6 z m -20,10 a 3,3 0 1 0 0,-6 3,3 0 0 0 0,6 z m 10,0 a 3,3 0 1 0 0,-6 3,3 0 0 0 0,6 z m 10,0 a 3,3 0 1 0 0,-6 3,3 0 0 0 0,6 z m -30,0 a 3,3 0 1 0 0,-6 3,3 0 0 0 0,6 z m -28,-8 a 5,5 0 0 0 -10,0 z m 10,0 a 5,5 0 0 1 -10,0 z m 31,-28 a 5,5 0 0 0 -10,0 z m 10,0 a 5,5 0 0 1 -10,0 z m -3,46 a 3,3 0 1 0 0,-6 3,3 0 0 0 0,6 z m 10,0 a 3,3 0 1 0 0,-6 3,3 0 0 0 0,6 z m -52,-51 5,20 h -10 z m 43,64 v -4 h -4 v 4 h -4 v 4 h 4 v 4 h 4 v -4 h 4 v -4 z m -28,-51 h 4 v 4 h -4 z m 4,4 h 4 v 4 h -4 z m -4,4 h 4 v 4 h -4 z m 8,-8 h 4 v 4 h -4 z"
     inkscape:connector-curvature="0"
     style="fill:#000000;fill-rule:evenodd" />
  <path
     inkscape:connector-curvature="0"
     style="fill:#000000;fill-rule:evenodd"
     id="path817-9-7-5"
     d="m 248.14933,320.34125 5,20 h -10 z m 42,31 a 3,3 0 1 0 0,-6 3,3 0 0 0 0,6 z m -53,40.99998 h 39.99999 v 4 h -39.99999 z m 0,-8 h 30.99999 v 4 h -30.99999 z m 19.99999,-15.99998 h 20 v 4 h -20 z m -19.99999,8 h 39.99999 v 3.99998 h -39.99999 z m 63,-25 a 3,3 0 1 0 0,-6 3,3 0 0 0 0,6 z m 10,0 a 3,3 0 1 0 0,-6 3,3 0 0 0 0,6 z m -20,10 a 3,3 0 1 0 0,-6 3,3 0 0 0 0,6 z m 10,0 a 3,3 0 1 0 0,-6 3,3 0 0 0 0,6 z m 10,0 a 3,3 0 1 0 0,-6 3,3 0 0 0 0,6 z m -30.00001,0 a 3,3 0 1 0 0,-6 3,3 0 0 0 0,6 z m -27.99999,-8 a 5,5 0 0 0 -10,0 z m 9.99999,0 a 5,5 0 0 1 -9.99999,0 z m 31.00001,-28 a 5.000005,5.000005 0 0 0 -10.00001,0 z m 10,0 a 5,5 0 0 1 -10,0 z m -3,46 a 3,3 0 1 0 0,-6 3,3 0 0 0 0,6 z m 10,0 a 3,3 0 1 0 0,-6 3,3 0 0 0 0,6 z m -52.00001,-51 5,20 h -9.99999 z m 43.00001,63.99998 v -4 h -4 v 4 h -4 v 4 h 4 v 4 h 4 v -4 h 4 v -4 z m -28.00001,-50.99998 h 4 v 4 h -4 z m 4,4 h 4 v 4 h -4 z m -4,4 h 4 v 4 h -4 z m 8,-8 h 4 v 4 h -4 z" />
  <path
     inkscape:connector-curvature="0"
     style="fill:#000000;fill-rule:evenodd"
     id="path817-99-84-9"
     d="m 168.16384,400.5437 5,20 h -10 z m 41.99999,31 a 3,3 0 1 0 0,-6 3,3 0 0 0 0,6 z m -52.99999,41 h 40 v 4 h -40 z m 0,-8 h 31 v 4 h -31 z m 20,-16 h 20 v 4 h -20 z m -20,8 h 40 v 4 h -40 z m 62.99999,-25 a 3,3 0 1 0 0,-6 3,3 0 0 0 0,6 z m 10,0 a 3,3 0 1 0 0,-6 3,3 0 0 0 0,6 z m -20,10 a 3,3 0 1 0 0,-6 3,3 0 0 0 0,6 z m 10,0 a 3,3 0 1 0 0,-6 3,3 0 0 0 0,6 z m 10,0 a 3,3 0 1 0 0,-6 3,3 0 0 0 0,6 z m -29.99999,0 a 3,3 0 1 0 0,-6 3,3 0 0 0 0,6 z m -28,-8 a 5,5 0 0 0 -10,0 z m 10,0 a 5,5 0 0 1 -10,0 z m 30.99999,-28 a 5,5 0 0 0 -10,0 z m 10,0 a 5,5 0 0 1 -10,0 z m -3,46 a 3,3 0 1 0 0,-6 3,3 0 0 0 0,6 z m 10,0 a 3,3 0 1 0 0,-6 3,3 0 0 0 0,6 z m -51.99999,-51 5,20 h -10 z m 42.99999,64 v -4 h -4 v 4 h -4 v 4 h 4 v 4 h 4 v -4 h 4 v -4 z m -27.99999,-51.00001 h 4 v 4.00001 h -4 z m 4,4.00001 h 4 v 4 h -4 z m -4,4 h 4 v 4 h -4 z m 8,-8 h 3.99999 v 4 h -3.99999 z" />
  <path
     inkscape:connector-curvature="0"
     style="fill:#000000;fill-rule:evenodd"
     id="path817-3-8-2"
     d="m 248.33333,400.71318 5,20 h -10 z m 41.99999,31 a 3,3 0 1 0 0,-6 3,3 0 0 0 0,6 z m -52.99999,41.00003 h 39.99999 v 4 h -39.99999 z m 0,-8 h 30.99999 v 3.99999 h -30.99999 z m 20,-16.00001 h 19.99999 v 4 h -19.99999 z m -20,8.00001 h 39.99999 v 4 h -39.99999 z m 62.99999,-25.00003 a 3,3 0 1 0 0,-6 3,3 0 0 0 0,6 z m 10,0 a 3,3 0 1 0 0,-6 3,3 0 0 0 0,6 z m -20,10.00001 a 3.000005,3.000005 0 1 0 0,-6.00001 3.000005,3.000005 0 0 0 0,6.00001 z m 10,0 a 3.000005,3.000005 0 1 0 0,-6.00001 3.000005,3.000005 0 0 0 0,6.00001 z m 10,0 a 3.000005,3.000005 0 1 0 0,-6.00001 3.000005,3.000005 0 0 0 0,6.00001 z m -30,0 a 3.000005,3.000005 0 1 0 0,-6.00001 3.000005,3.000005 0 0 0 0,6.00001 z m -27.99999,-8.00001 a 5,5 0 0 0 -10,0 z m 9.99999,0 a 5,5 0 0 1 -9.99999,0 z m 31,-28 a 5,5 0 0 0 -10,0 z m 10,0 a 5,5 0 0 1 -10,0 z m -3,46.00001 a 3,3 0 1 0 0,-6 3,3 0 0 0 0,6 z m 10,0 a 3,3 0 1 0 0,-6 3,3 0 0 0 0,6 z m -51.99999,-51.00001 4.99999,20 h -9.99999 z m 42.99999,64.00002 v -4 h -4 v 4 h -4 v 3.99999 h 4 v 4.00001 h 4 v -4.00001 h 4 v -3.99999 z m -28,-51.00002 h 4 v 4 h -4 z m 4,4 h 4 v 4 h -4 z m -4,4 h 4 v 4 h -4 z m 8,-8 h 4 v 4 h -4 z" />
</svg>
